<?xml version="1.0" encoding="UTF-8" standalone="no"?>
<!DOCTYPE svg PUBLIC "-//W3C//DTD SVG 1.1//EN"
 "http://www.w3.org/Graphics/SVG/1.1/DTD/svg11.dtd">
<!-- Generated by graphviz version 8.1.0 (20230707.2238)
 -->
<!-- Title: flowchart_v4 Pages: 1 -->
<svg width="1583pt" height="1622pt"
 viewBox="0.00 0.00 1582.87 1621.55" xmlns="http://www.w3.org/2000/svg" xmlns:xlink="http://www.w3.org/1999/xlink">
<g id="graph0" class="graph" transform="scale(1 1) rotate(0) translate(4 1617.55)">
<title>flowchart_v4</title>
<polygon fill="white" stroke="none" points="-4,4 -4,-1617.55 1578.87,-1617.55 1578.87,4 -4,4"/>
<!-- p0 -->
<g id="node1" class="node">
<title>p0</title>
<ellipse fill="black" stroke="black" cx="290.01" cy="-1592.7" rx="3.6" ry="3.6"/>
<text text-anchor="middle" x="221.91" y="-1600.25" font-family="Times,serif" font-size="14.00">Channel.fromPath</text>
</g>
<!-- p1 -->
<g id="node2" class="node">
<title>p1</title>
<ellipse fill="none" stroke="black" cx="290.01" cy="-1548.5" rx="3.6" ry="3.6"/>
<text text-anchor="middle" x="271.03" y="-1556.05" font-family="Times,serif" font-size="14.00">map</text>
</g>
<!-- p0&#45;&gt;p1 -->
<g id="edge1" class="edge">
<title>p0&#45;&gt;p1</title>
<path fill="none" stroke="black" d="M290.01,-1588.67C290.01,-1583.38 290.01,-1572.2 290.01,-1563.13"/>
<polygon fill="black" stroke="black" points="293.51,-1563.29 290.01,-1553.29 286.51,-1563.29 293.51,-1563.29"/>
</g>
<!-- p12 -->
<g id="node3" class="node">
<title>p12</title>
<ellipse fill="none" stroke="black" cx="290.01" cy="-1473.65" rx="153.27" ry="18"/>
<text text-anchor="middle" x="290.01" y="-1468.97" font-family="Times,serif" font-size="14.00">NON_TRIMMED:megahit_se</text>
</g>
<!-- p1&#45;&gt;p12 -->
<g id="edge2" class="edge">
<title>p1&#45;&gt;p12</title>
<path fill="none" stroke="black" d="M290.01,-1544.73C290.01,-1537.81 290.01,-1519.1 290.01,-1502.76"/>
<polygon fill="black" stroke="black" points="293.51,-1503 290.01,-1493 286.51,-1503 293.51,-1503"/>
<text text-anchor="middle" x="337.26" y="-1513.6" font-family="Times,serif" font-size="14.00">seq_reads_ch</text>
</g>
<!-- p13 -->
<g id="node6" class="node">
<title>p13</title>
<ellipse fill="none" stroke="black" cx="377.01" cy="-1398.8" rx="3.6" ry="3.6"/>
<text text-anchor="middle" x="350.16" y="-1406.35" font-family="Times,serif" font-size="14.00">concat</text>
</g>
<!-- p12&#45;&gt;p13 -->
<g id="edge13" class="edge">
<title>p12&#45;&gt;p13</title>
<path fill="none" stroke="black" d="M310.63,-1455.39C328.08,-1440.77 352.42,-1420.39 366.25,-1408.81"/>
<polygon fill="black" stroke="black" points="368.08,-1411 373.5,-1401.9 363.59,-1405.63 368.08,-1411"/>
</g>
<!-- p2 -->
<g id="node4" class="node">
<title>p2</title>
<ellipse fill="black" stroke="black" cx="465.01" cy="-1548.5" rx="3.6" ry="3.6"/>
<text text-anchor="middle" x="396.91" y="-1556.05" font-family="Times,serif" font-size="14.00">Channel.fromPath</text>
</g>
<!-- p3 -->
<g id="node5" class="node">
<title>p3</title>
<ellipse fill="none" stroke="black" cx="465.01" cy="-1473.65" rx="3.6" ry="3.6"/>
<text text-anchor="middle" x="476.78" y="-1481.2" font-family="Times,serif" font-size="14.00">map</text>
</g>
<!-- p2&#45;&gt;p3 -->
<g id="edge3" class="edge">
<title>p2&#45;&gt;p3</title>
<path fill="none" stroke="black" d="M465.01,-1544.73C465.01,-1535.67 465.01,-1506.41 465.01,-1488.69"/>
<polygon fill="black" stroke="black" points="468.51,-1488.74 465.01,-1478.74 461.51,-1488.74 468.51,-1488.74"/>
</g>
<!-- p3&#45;&gt;p13 -->
<g id="edge4" class="edge">
<title>p3&#45;&gt;p13</title>
<path fill="none" stroke="black" d="M463.36,-1470.05C461.06,-1466.56 456.66,-1460.24 452.01,-1455.65 431.94,-1435.84 404.57,-1417.19 389.05,-1407.26"/>
<polygon fill="black" stroke="black" points="391.15,-1403.82 380.81,-1401.48 387.44,-1409.75 391.15,-1403.82"/>
<text text-anchor="middle" x="484.26" y="-1424.35" font-family="Times,serif" font-size="14.00">seq_contigs_ch</text>
</g>
<!-- p14 -->
<g id="node17" class="node">
<title>p14</title>
<ellipse fill="none" stroke="black" cx="377.01" cy="-1340.2" rx="152.75" ry="18"/>
<text text-anchor="middle" x="377.01" y="-1335.52" font-family="Times,serif" font-size="14.00">NON_TRIMMED:fasta2fastq</text>
</g>
<!-- p13&#45;&gt;p14 -->
<g id="edge14" class="edge">
<title>p13&#45;&gt;p14</title>
<path fill="none" stroke="black" d="M377.01,-1394.76C377.01,-1389.83 377.01,-1379.64 377.01,-1369.45"/>
<polygon fill="black" stroke="black" points="380.51,-1369.65 377.01,-1359.65 373.51,-1369.65 380.51,-1369.65"/>
</g>
<!-- p4 -->
<g id="node7" class="node">
<title>p4</title>
<ellipse fill="black" stroke="black" cx="798.01" cy="-934.15" rx="3.6" ry="3.6"/>
<text text-anchor="middle" x="729.91" y="-941.7" font-family="Times,serif" font-size="14.00">Channel.fromPath</text>
</g>
<!-- p5 -->
<g id="node8" class="node">
<title>p5</title>
<ellipse fill="none" stroke="black" cx="798.01" cy="-889.95" rx="3.6" ry="3.6"/>
<text text-anchor="middle" x="779.03" y="-897.5" font-family="Times,serif" font-size="14.00">map</text>
</g>
<!-- p4&#45;&gt;p5 -->
<g id="edge5" class="edge">
<title>p4&#45;&gt;p5</title>
<path fill="none" stroke="black" d="M798.01,-930.12C798.01,-924.83 798.01,-913.65 798.01,-904.58"/>
<polygon fill="black" stroke="black" points="801.51,-904.74 798.01,-894.74 794.51,-904.74 801.51,-904.74"/>
</g>
<!-- p6 -->
<g id="node9" class="node">
<title>p6</title>
<ellipse fill="none" stroke="black" cx="798.01" cy="-829.5" rx="3.6" ry="3.6"/>
<text text-anchor="middle" x="767.03" y="-837.05" font-family="Times,serif" font-size="14.00">flatMap</text>
</g>
<!-- p5&#45;&gt;p6 -->
<g id="edge6" class="edge">
<title>p5&#45;&gt;p6</title>
<path fill="none" stroke="black" d="M798.01,-886.13C798.01,-878.67 798.01,-858 798.01,-844.07"/>
<polygon fill="black" stroke="black" points="801.51,-844.43 798.01,-834.43 794.51,-844.43 801.51,-844.43"/>
</g>
<!-- p7 -->
<g id="node10" class="node">
<title>p7</title>
<ellipse fill="none" stroke="black" cx="798.01" cy="-770.9" rx="3.6" ry="3.6"/>
<text text-anchor="middle" x="818.03" y="-778.45" font-family="Times,serif" font-size="14.00">collate</text>
</g>
<!-- p6&#45;&gt;p7 -->
<g id="edge7" class="edge">
<title>p6&#45;&gt;p7</title>
<path fill="none" stroke="black" d="M798.01,-825.46C798.01,-818.09 798.01,-798.91 798.01,-785.62"/>
<polygon fill="black" stroke="black" points="801.51,-785.96 798.01,-775.96 794.51,-785.96 801.51,-785.96"/>
</g>
<!-- p33 -->
<g id="node11" class="node">
<title>p33</title>
<ellipse fill="none" stroke="black" cx="722.01" cy="-681.65" rx="262.18" ry="18"/>
<text text-anchor="middle" x="722.01" y="-676.98" font-family="Times,serif" font-size="14.00">NON_TRIMMED:MAP2REF_SWF_CORAL:map2ref</text>
</g>
<!-- p7&#45;&gt;p33 -->
<g id="edge8" class="edge">
<title>p7&#45;&gt;p33</title>
<path fill="none" stroke="black" d="M796.13,-767.74C789.04,-759.6 763.31,-730.06 744.14,-708.06"/>
<polygon fill="black" stroke="black" points="746.38,-706.3 737.17,-701.06 741.1,-710.9 746.38,-706.3"/>
<text text-anchor="middle" x="811.76" y="-721.6" font-family="Times,serif" font-size="14.00">reference_ch</text>
</g>
<!-- p34 -->
<g id="node37" class="node">
<title>p34</title>
<ellipse fill="none" stroke="black" cx="992.01" cy="-608.65" rx="268.49" ry="18"/>
<text text-anchor="middle" x="992.01" y="-603.98" font-family="Times,serif" font-size="14.00">NON_TRIMMED:MAP2REF_SWF_CORAL:split_bam</text>
</g>
<!-- p7&#45;&gt;p34 -->
<g id="edge41" class="edge">
<title>p7&#45;&gt;p34</title>
<path fill="none" stroke="black" d="M801.86,-769.97C824.9,-770.13 945.22,-767.66 993.01,-699.65 1005.55,-681.8 1004.12,-656.66 1000.22,-637.48"/>
<polygon fill="black" stroke="black" points="1003.44,-636.9 997.73,-627.98 996.63,-638.52 1003.44,-636.9"/>
<text text-anchor="middle" x="1047.76" y="-676.98" font-family="Times,serif" font-size="14.00">reference_ch</text>
</g>
<!-- p33&#45;&gt;p34 -->
<g id="edge40" class="edge">
<title>p33&#45;&gt;p34</title>
<path fill="none" stroke="black" d="M786.34,-663.73C825.65,-653.4 876.1,-640.13 917.2,-629.32"/>
<polygon fill="black" stroke="black" points="917.92,-632.49 926.71,-626.56 916.14,-625.72 917.92,-632.49"/>
</g>
<!-- p8 -->
<g id="node12" class="node">
<title>p8</title>
<ellipse fill="black" stroke="black" cx="1293.01" cy="-829.5" rx="3.6" ry="3.6"/>
<text text-anchor="middle" x="1224.91" y="-837.05" font-family="Times,serif" font-size="14.00">Channel.fromPath</text>
</g>
<!-- p9 -->
<g id="node13" class="node">
<title>p9</title>
<ellipse fill="none" stroke="black" cx="1293.01" cy="-770.9" rx="3.6" ry="3.6"/>
<text text-anchor="middle" x="1274.03" y="-778.45" font-family="Times,serif" font-size="14.00">map</text>
</g>
<!-- p8&#45;&gt;p9 -->
<g id="edge9" class="edge">
<title>p8&#45;&gt;p9</title>
<path fill="none" stroke="black" d="M1293.01,-825.46C1293.01,-818.09 1293.01,-798.91 1293.01,-785.62"/>
<polygon fill="black" stroke="black" points="1296.51,-785.96 1293.01,-775.96 1289.51,-785.96 1296.51,-785.96"/>
</g>
<!-- p10 -->
<g id="node14" class="node">
<title>p10</title>
<ellipse fill="none" stroke="black" cx="1293.01" cy="-681.65" rx="3.6" ry="3.6"/>
<text text-anchor="middle" x="1262.03" y="-689.2" font-family="Times,serif" font-size="14.00">flatMap</text>
</g>
<!-- p9&#45;&gt;p10 -->
<g id="edge10" class="edge">
<title>p9&#45;&gt;p10</title>
<path fill="none" stroke="black" d="M1293.01,-767C1293.01,-756.13 1293.01,-717.41 1293.01,-696.42"/>
<polygon fill="black" stroke="black" points="1296.51,-696.65 1293.01,-686.65 1289.51,-696.65 1296.51,-696.65"/>
</g>
<!-- p11 -->
<g id="node15" class="node">
<title>p11</title>
<ellipse fill="none" stroke="black" cx="1293.01" cy="-608.65" rx="3.6" ry="3.6"/>
<text text-anchor="middle" x="1313.03" y="-616.2" font-family="Times,serif" font-size="14.00">collate</text>
</g>
<!-- p10&#45;&gt;p11 -->
<g id="edge11" class="edge">
<title>p10&#45;&gt;p11</title>
<path fill="none" stroke="black" d="M1293.01,-677.6C1293.01,-668.38 1293.01,-640.42 1293.01,-623.38"/>
<polygon fill="black" stroke="black" points="1296.51,-623.61 1293.01,-613.61 1289.51,-623.61 1296.51,-623.61"/>
</g>
<!-- p38 -->
<g id="node16" class="node">
<title>p38</title>
<ellipse fill="none" stroke="black" cx="1120.01" cy="-519.4" rx="249.55" ry="18"/>
<text text-anchor="middle" x="1120.01" y="-514.73" font-family="Times,serif" font-size="14.00">NON_TRIMMED:MAP2REF_SWF_SYM:map2ref</text>
</g>
<!-- p11&#45;&gt;p38 -->
<g id="edge12" class="edge">
<title>p11&#45;&gt;p38</title>
<path fill="none" stroke="black" d="M1290.58,-605.71C1286.36,-602.39 1277.3,-595.49 1269.01,-590.65 1237.64,-572.33 1200.71,-554.9 1171.47,-541.98"/>
<polygon fill="black" stroke="black" points="1173.03,-538.41 1162.47,-537.6 1170.23,-544.82 1173.03,-538.41"/>
<text text-anchor="middle" x="1278.76" y="-559.35" font-family="Times,serif" font-size="14.00">reference_ch</text>
</g>
<!-- p39 -->
<g id="node41" class="node">
<title>p39</title>
<ellipse fill="none" stroke="black" cx="1319.01" cy="-446.4" rx="255.86" ry="18"/>
<text text-anchor="middle" x="1319.01" y="-441.72" font-family="Times,serif" font-size="14.00">NON_TRIMMED:MAP2REF_SWF_SYM:split_bam</text>
</g>
<!-- p11&#45;&gt;p39 -->
<g id="edge49" class="edge">
<title>p11&#45;&gt;p39</title>
<path fill="none" stroke="black" d="M1296.19,-606.31C1309.46,-600.5 1360.67,-576.07 1379.01,-537.4 1385.87,-522.94 1385.52,-516.02 1379.01,-501.4 1373.85,-489.82 1364.84,-479.67 1355.35,-471.4"/>
<polygon fill="black" stroke="black" points="1357.94,-468.19 1347.97,-464.62 1353.54,-473.63 1357.94,-468.19"/>
<text text-anchor="middle" x="1429.76" y="-514.73" font-family="Times,serif" font-size="14.00">reference_ch</text>
</g>
<!-- p38&#45;&gt;p39 -->
<g id="edge48" class="edge">
<title>p38&#45;&gt;p39</title>
<path fill="none" stroke="black" d="M1167.93,-501.3C1195.91,-491.32 1231.42,-478.65 1260.98,-468.11"/>
<polygon fill="black" stroke="black" points="1261.92,-471.13 1270.16,-464.47 1259.57,-464.54 1261.92,-471.13"/>
</g>
<!-- p15 -->
<g id="node18" class="node">
<title>p15</title>
<ellipse fill="none" stroke="black" cx="158.01" cy="-1250.95" rx="158.01" ry="18"/>
<text text-anchor="middle" x="158.01" y="-1246.27" font-family="Times,serif" font-size="14.00">NON_TRIMMED:fastp_report</text>
</g>
<!-- p14&#45;&gt;p15 -->
<g id="edge15" class="edge">
<title>p14&#45;&gt;p15</title>
<path fill="none" stroke="black" d="M335.04,-1322.48C299.47,-1308.31 248.3,-1287.92 210.11,-1272.71"/>
<polygon fill="black" stroke="black" points="211.79,-1269.21 201.21,-1268.76 209.2,-1275.71 211.79,-1269.21"/>
<text text-anchor="middle" x="298.88" y="-1290.9" font-family="Times,serif" font-size="14.00">file</text>
</g>
<!-- p17 -->
<g id="node21" class="node">
<title>p17</title>
<ellipse fill="none" stroke="black" cx="377.01" cy="-1250.95" rx="3.6" ry="3.6"/>
<text text-anchor="middle" x="350.16" y="-1258.5" font-family="Times,serif" font-size="14.00">collect</text>
</g>
<!-- p14&#45;&gt;p17 -->
<g id="edge18" class="edge">
<title>p14&#45;&gt;p17</title>
<path fill="none" stroke="black" d="M377.01,-1321.96C377.01,-1305.54 377.01,-1281.12 377.01,-1265.88"/>
<polygon fill="black" stroke="black" points="380.51,-1265.97 377.01,-1255.97 373.51,-1265.97 380.51,-1265.97"/>
<text text-anchor="middle" x="387.88" y="-1290.9" font-family="Times,serif" font-size="14.00">file</text>
</g>
<!-- p19 -->
<g id="node24" class="node">
<title>p19</title>
<ellipse fill="none" stroke="black" cx="437.01" cy="-1250.95" rx="3.6" ry="3.6"/>
<text text-anchor="middle" x="410.16" y="-1258.5" font-family="Times,serif" font-size="14.00">collect</text>
</g>
<!-- p14&#45;&gt;p19 -->
<g id="edge21" class="edge">
<title>p14&#45;&gt;p19</title>
<path fill="none" stroke="black" d="M390.18,-1321.91C394.36,-1316.31 398.94,-1310.04 403.01,-1304.2 412.63,-1290.37 423.13,-1274.04 429.87,-1263.36"/>
<polygon fill="black" stroke="black" points="433.15,-1265.71 435.5,-1255.38 427.22,-1261.99 433.15,-1265.71"/>
<text text-anchor="middle" x="425.88" y="-1290.9" font-family="Times,serif" font-size="14.00">file</text>
</g>
<!-- p21 -->
<g id="node26" class="node">
<title>p21</title>
<ellipse fill="none" stroke="black" cx="489.01" cy="-1250.95" rx="3.6" ry="3.6"/>
<text text-anchor="middle" x="462.16" y="-1258.5" font-family="Times,serif" font-size="14.00">collect</text>
</g>
<!-- p14&#45;&gt;p21 -->
<g id="edge24" class="edge">
<title>p14&#45;&gt;p21</title>
<path fill="none" stroke="black" d="M412.85,-1322.28C422.4,-1317.07 432.43,-1310.91 441.01,-1304.2 456.89,-1291.77 472.08,-1273.88 480.98,-1262.58"/>
<polygon fill="black" stroke="black" points="484.11,-1265.25 487.39,-1255.18 478.55,-1261 484.11,-1265.25"/>
<text text-anchor="middle" x="470.88" y="-1290.9" font-family="Times,serif" font-size="14.00">file</text>
</g>
<!-- p28 -->
<g id="node32" class="node">
<title>p28</title>
<ellipse fill="none" stroke="black" cx="501.01" cy="-829.5" rx="3.6" ry="3.6"/>
<text text-anchor="middle" x="484.28" y="-837.05" font-family="Times,serif" font-size="14.00">join</text>
</g>
<!-- p14&#45;&gt;p28 -->
<g id="edge32" class="edge">
<title>p14&#45;&gt;p28</title>
<path fill="none" stroke="black" d="M366.2,-1321.88C356.58,-1304.78 344.01,-1277.54 344.01,-1251.95 344.01,-1251.95 344.01,-1251.95 344.01,-888.95 344.01,-858.64 448.08,-838.94 486.76,-832.67"/>
<polygon fill="black" stroke="black" points="487.09,-836 496.43,-831.01 486.02,-829.08 487.09,-836"/>
<text text-anchor="middle" x="354.88" y="-1067.95" font-family="Times,serif" font-size="14.00">file</text>
</g>
<!-- p43 -->
<g id="node19" class="node">
<title>p43</title>
<ellipse fill="none" stroke="black" cx="593.01" cy="-221.85" rx="3.6" ry="3.6"/>
<text text-anchor="middle" x="566.16" y="-229.4" font-family="Times,serif" font-size="14.00">concat</text>
</g>
<!-- p15&#45;&gt;p43 -->
<g id="edge16" class="edge">
<title>p15&#45;&gt;p43</title>
<path fill="none" stroke="black" d="M151.04,-1232.92C147.12,-1221.84 143.01,-1206.97 143.01,-1193.35 143.01,-1193.35 143.01,-1193.35 143.01,-295.7 143.01,-250.53 500.87,-227.99 578.34,-223.64"/>
<polygon fill="black" stroke="black" points="578.32,-227.09 588.12,-223.05 577.94,-220.1 578.32,-227.09"/>
</g>
<!-- p16 -->
<g id="node20" class="node">
<title>p16</title>
<ellipse fill="black" stroke="black" cx="173.01" cy="-1192.35" rx="1.8" ry="1.8"/>
</g>
<!-- p15&#45;&gt;p16 -->
<g id="edge17" class="edge">
<title>p15&#45;&gt;p16</title>
<path fill="none" stroke="black" d="M162.59,-1232.66C164.96,-1223.72 167.79,-1213.04 169.9,-1205.07"/>
<polygon fill="black" stroke="black" points="173.49,-1206.18 172.67,-1195.61 166.73,-1204.38 173.49,-1206.18"/>
</g>
<!-- p44 -->
<g id="node45" class="node">
<title>p44</title>
<ellipse fill="none" stroke="black" cx="593.01" cy="-161.4" rx="3.6" ry="3.6"/>
<text text-anchor="middle" x="566.16" y="-168.95" font-family="Times,serif" font-size="14.00">collect</text>
</g>
<!-- p43&#45;&gt;p44 -->
<g id="edge55" class="edge">
<title>p43&#45;&gt;p44</title>
<path fill="none" stroke="black" d="M593.01,-218.03C593.01,-210.57 593.01,-189.9 593.01,-175.97"/>
<polygon fill="black" stroke="black" points="596.51,-176.33 593.01,-166.33 589.51,-176.33 596.51,-176.33"/>
<text text-anchor="middle" x="645.88" y="-186.95" font-family="Times,serif" font-size="14.00">fastp_parse_ch</text>
</g>
<!-- p18 -->
<g id="node22" class="node">
<title>p18</title>
<ellipse fill="none" stroke="black" cx="377.01" cy="-1192.35" rx="3.6" ry="3.6"/>
<text text-anchor="middle" x="352.78" y="-1199.9" font-family="Times,serif" font-size="14.00">toList</text>
</g>
<!-- p17&#45;&gt;p18 -->
<g id="edge19" class="edge">
<title>p17&#45;&gt;p18</title>
<path fill="none" stroke="black" d="M377.01,-1246.91C377.01,-1239.54 377.01,-1220.36 377.01,-1207.07"/>
<polygon fill="black" stroke="black" points="380.51,-1207.41 377.01,-1197.41 373.51,-1207.41 380.51,-1207.41"/>
</g>
<!-- p23 -->
<g id="node23" class="node">
<title>p23</title>
<ellipse fill="none" stroke="black" cx="447.01" cy="-1126.88" rx="3.6" ry="3.6"/>
<text text-anchor="middle" x="420.53" y="-1134.43" font-family="Times,serif" font-size="14.00">merge</text>
</g>
<!-- p18&#45;&gt;p23 -->
<g id="edge20" class="edge">
<title>p18&#45;&gt;p23</title>
<path fill="none" stroke="black" d="M377.35,-1188.6C378.32,-1181.79 381.7,-1163.98 391.51,-1153.5 402.7,-1141.54 420.58,-1134.68 433.01,-1131.13"/>
<polygon fill="black" stroke="black" points="433.61,-1134.34 442.48,-1128.54 431.93,-1127.54 433.61,-1134.34"/>
<text text-anchor="middle" x="415.26" y="-1157.45" font-family="Times,serif" font-size="14.00">names</text>
</g>
<!-- p24 -->
<g id="node28" class="node">
<title>p24</title>
<ellipse fill="none" stroke="black" cx="495.01" cy="-1072.62" rx="3.6" ry="3.6"/>
<text text-anchor="middle" x="468.53" y="-1080.18" font-family="Times,serif" font-size="14.00">merge</text>
</g>
<!-- p23&#45;&gt;p24 -->
<g id="edge27" class="edge">
<title>p23&#45;&gt;p24</title>
<path fill="none" stroke="black" d="M449.07,-1123.63C455.3,-1116.85 474.2,-1096.27 485.73,-1083.73"/>
<polygon fill="black" stroke="black" points="487.82,-1086.54 492.01,-1076.8 482.66,-1081.8 487.82,-1086.54"/>
</g>
<!-- p20 -->
<g id="node25" class="node">
<title>p20</title>
<ellipse fill="none" stroke="black" cx="445.01" cy="-1192.35" rx="3.6" ry="3.6"/>
<text text-anchor="middle" x="420.78" y="-1199.9" font-family="Times,serif" font-size="14.00">toList</text>
</g>
<!-- p19&#45;&gt;p20 -->
<g id="edge22" class="edge">
<title>p19&#45;&gt;p20</title>
<path fill="none" stroke="black" d="M437.44,-1246.91C438.48,-1239.54 441.19,-1220.36 443.07,-1207.07"/>
<polygon fill="black" stroke="black" points="446.64,-1207.8 444.58,-1197.41 439.71,-1206.82 446.64,-1207.8"/>
</g>
<!-- p20&#45;&gt;p23 -->
<g id="edge23" class="edge">
<title>p20&#45;&gt;p23</title>
<path fill="none" stroke="black" d="M444.49,-1188.43C443.82,-1184.45 442.68,-1177.09 442.26,-1170.75 441.75,-1163.1 441.56,-1161.13 442.26,-1153.5 442.63,-1149.48 443.32,-1145.16 444.06,-1141.23"/>
<polygon fill="black" stroke="black" points="447.61,-1142.36 446.27,-1131.85 440.76,-1140.9 447.61,-1142.36"/>
<text text-anchor="middle" x="462.88" y="-1157.45" font-family="Times,serif" font-size="14.00">paths</text>
</g>
<!-- p22 -->
<g id="node27" class="node">
<title>p22</title>
<ellipse fill="none" stroke="black" cx="495.01" cy="-1162.12" rx="3.6" ry="3.6"/>
<text text-anchor="middle" x="512.03" y="-1169.68" font-family="Times,serif" font-size="14.00">toList</text>
</g>
<!-- p21&#45;&gt;p22 -->
<g id="edge25" class="edge">
<title>p21&#45;&gt;p22</title>
<path fill="none" stroke="black" d="M489.21,-1247.06C489.96,-1236.25 492.62,-1197.71 494.06,-1176.82"/>
<polygon fill="black" stroke="black" points="497.6,-1177.33 494.8,-1167.11 490.62,-1176.85 497.6,-1177.33"/>
</g>
<!-- p22&#45;&gt;p24 -->
<g id="edge26" class="edge">
<title>p22&#45;&gt;p24</title>
<path fill="none" stroke="black" d="M495.01,-1158.21C495.01,-1147.32 495.01,-1108.48 495.01,-1087.43"/>
<polygon fill="black" stroke="black" points="498.51,-1087.64 495.01,-1077.64 491.51,-1087.64 498.51,-1087.64"/>
<text text-anchor="middle" x="518.63" y="-1122.2" font-family="Times,serif" font-size="14.00">output</text>
</g>
<!-- p25 -->
<g id="node29" class="node">
<title>p25</title>
<ellipse fill="none" stroke="black" cx="633.01" cy="-992.75" rx="261.13" ry="18"/>
<text text-anchor="middle" x="633.01" y="-988.08" font-family="Times,serif" font-size="14.00">NON_TRIMMED:EXTRACT_BACTERIA:kaiju_multi</text>
</g>
<!-- p24&#45;&gt;p25 -->
<g id="edge28" class="edge">
<title>p24&#45;&gt;p25</title>
<path fill="none" stroke="black" d="M497.89,-1070C510.01,-1063.16 557.81,-1036.18 593.14,-1016.25"/>
<polygon fill="black" stroke="black" points="594.29,-1019.05 601.28,-1011.09 590.85,-1012.96 594.29,-1019.05"/>
<text text-anchor="middle" x="641.13" y="-1032.7" font-family="Times,serif" font-size="14.00">kaiju_multi_input_ch</text>
</g>
<!-- p26 -->
<g id="node30" class="node">
<title>p26</title>
<ellipse fill="none" stroke="black" cx="609.01" cy="-934.15" rx="3.6" ry="3.6"/>
<text text-anchor="middle" x="582.16" y="-941.7" font-family="Times,serif" font-size="14.00">flatten</text>
</g>
<!-- p25&#45;&gt;p26 -->
<g id="edge29" class="edge">
<title>p25&#45;&gt;p26</title>
<path fill="none" stroke="black" d="M625.68,-974.46C622.03,-965.86 617.7,-955.65 614.37,-947.79"/>
<polygon fill="black" stroke="black" points="617.22,-946.56 610.1,-938.72 610.78,-949.29 617.22,-946.56"/>
</g>
<!-- p27 -->
<g id="node31" class="node">
<title>p27</title>
<ellipse fill="none" stroke="black" cx="567.01" cy="-889.95" rx="3.6" ry="3.6"/>
<text text-anchor="middle" x="548.03" y="-897.5" font-family="Times,serif" font-size="14.00">map</text>
</g>
<!-- p26&#45;&gt;p27 -->
<g id="edge30" class="edge">
<title>p26&#45;&gt;p27</title>
<path fill="none" stroke="black" d="M606.75,-930.88C601.17,-925.28 586.48,-910.51 576.61,-900.6"/>
<polygon fill="black" stroke="black" points="579.61,-898.65 570.08,-894.03 574.65,-903.59 579.61,-898.65"/>
</g>
<!-- p27&#45;&gt;p28 -->
<g id="edge31" class="edge">
<title>p27&#45;&gt;p28</title>
<path fill="none" stroke="black" d="M564.5,-886.73C555.93,-879.14 527.42,-853.89 511.68,-839.95"/>
<polygon fill="black" stroke="black" points="514.32,-837.73 504.52,-833.72 509.68,-842.97 514.32,-837.73"/>
<text text-anchor="middle" x="630.13" y="-855.05" font-family="Times,serif" font-size="14.00">kaiju_multi_out_clean_ch</text>
</g>
<!-- p29 -->
<g id="node33" class="node">
<title>p29</title>
<ellipse fill="none" stroke="black" cx="501.01" cy="-770.9" rx="250.08" ry="18"/>
<text text-anchor="middle" x="501.01" y="-766.23" font-family="Times,serif" font-size="14.00">NON_TRIMMED:EXTRACT_BACTERIA:split_bac</text>
</g>
<!-- p28&#45;&gt;p29 -->
<g id="edge33" class="edge">
<title>p28&#45;&gt;p29</title>
<path fill="none" stroke="black" d="M501.01,-825.46C501.01,-820.53 501.01,-810.34 501.01,-800.15"/>
<polygon fill="black" stroke="black" points="504.51,-800.35 501.01,-790.35 497.51,-800.35 504.51,-800.35"/>
</g>
<!-- p29&#45;&gt;p33 -->
<g id="edge39" class="edge">
<title>p29&#45;&gt;p33</title>
<path fill="none" stroke="black" d="M550.57,-752.84C566.15,-747.3 583.36,-741.01 599.01,-734.9 623.65,-725.27 650.75,-713.86 673.22,-704.15"/>
<polygon fill="black" stroke="black" points="674.41,-707.02 682.19,-699.83 671.63,-700.6 674.41,-707.02"/>
<text text-anchor="middle" x="658.88" y="-721.6" font-family="Times,serif" font-size="14.00">reads</text>
</g>
<!-- p30 -->
<g id="node34" class="node">
<title>p30</title>
<ellipse fill="none" stroke="black" cx="438.01" cy="-681.65" rx="3.6" ry="3.6"/>
<text text-anchor="middle" x="411.16" y="-689.2" font-family="Times,serif" font-size="14.00">concat</text>
</g>
<!-- p29&#45;&gt;p30 -->
<g id="edge34" class="edge">
<title>p29&#45;&gt;p30</title>
<path fill="none" stroke="black" d="M496.56,-752.49C493.12,-741.59 487.49,-727.75 479.01,-717.65 469.49,-706.33 461.89,-709.68 451.01,-699.65 449.21,-697.99 447.47,-696.05 445.88,-694.1"/>
<polygon fill="black" stroke="black" points="448.27,-692.41 439.61,-686.29 442.56,-696.47 448.27,-692.41"/>
<text text-anchor="middle" x="542.51" y="-721.6" font-family="Times,serif" font-size="14.00">bacteria_reads</text>
</g>
<!-- p29&#45;&gt;p30 -->
<g id="edge35" class="edge">
<title>p29&#45;&gt;p30</title>
<path fill="none" stroke="black" d="M453.38,-752.77C446.15,-748.09 439.65,-742.22 435.26,-734.9 428.13,-723.03 430.46,-706.78 433.52,-695.57"/>
<polygon fill="black" stroke="black" points="437.1,-696.88 436.91,-686.29 430.45,-694.69 437.1,-696.88"/>
<text text-anchor="middle" x="455.88" y="-721.6" font-family="Times,serif" font-size="14.00">reads</text>
</g>
<!-- p31 -->
<g id="node35" class="node">
<title>p31</title>
<ellipse fill="none" stroke="black" cx="438.01" cy="-608.65" rx="267.44" ry="18"/>
<text text-anchor="middle" x="438.01" y="-603.98" font-family="Times,serif" font-size="14.00">NON_TRIMMED:EXTRACT_BACTERIA:fastp_report</text>
</g>
<!-- p30&#45;&gt;p31 -->
<g id="edge36" class="edge">
<title>p30&#45;&gt;p31</title>
<path fill="none" stroke="black" d="M438.01,-677.6C438.01,-670.68 438.01,-653.19 438.01,-637.68"/>
<polygon fill="black" stroke="black" points="441.51,-637.93 438.01,-627.93 434.51,-637.93 441.51,-637.93"/>
</g>
<!-- p31&#45;&gt;p43 -->
<g id="edge37" class="edge">
<title>p31&#45;&gt;p43</title>
<path fill="none" stroke="black" d="M442.75,-590.42C447.15,-572.93 453.01,-544.99 453.01,-520.4 453.01,-520.4 453.01,-520.4 453.01,-295.7 453.01,-239.58 542.64,-226.63 578.47,-223.69"/>
<polygon fill="black" stroke="black" points="578.51,-227.13 588.26,-222.99 578.06,-220.15 578.51,-227.13"/>
<text text-anchor="middle" x="493.51" y="-397.1" font-family="Times,serif" font-size="14.00">report_json</text>
</g>
<!-- p32 -->
<g id="node36" class="node">
<title>p32</title>
<ellipse fill="black" stroke="black" cx="423.01" cy="-519.4" rx="1.8" ry="1.8"/>
</g>
<!-- p31&#45;&gt;p32 -->
<g id="edge38" class="edge">
<title>p31&#45;&gt;p32</title>
<path fill="none" stroke="black" d="M435.04,-590.41C432.07,-573.13 427.58,-547 425.01,-532.03"/>
<polygon fill="black" stroke="black" points="428.35,-531.79 423.2,-522.52 421.45,-532.97 428.35,-531.79"/>
</g>
<!-- p34&#45;&gt;p38 -->
<g id="edge47" class="edge">
<title>p34&#45;&gt;p38</title>
<path fill="none" stroke="black" d="M1038.81,-590.62C1049.84,-585.62 1061.22,-579.6 1071.01,-572.65 1081.57,-565.16 1091.64,-555.11 1099.88,-545.84"/>
<polygon fill="black" stroke="black" points="1103.06,-548.5 1106.89,-538.63 1097.74,-543.96 1103.06,-548.5"/>
<text text-anchor="middle" x="1109.88" y="-559.35" font-family="Times,serif" font-size="14.00">reads</text>
</g>
<!-- p35 -->
<g id="node38" class="node">
<title>p35</title>
<ellipse fill="none" stroke="black" cx="849.01" cy="-519.4" rx="3.6" ry="3.6"/>
<text text-anchor="middle" x="822.16" y="-526.95" font-family="Times,serif" font-size="14.00">concat</text>
</g>
<!-- p34&#45;&gt;p35 -->
<g id="edge42" class="edge">
<title>p34&#45;&gt;p35</title>
<path fill="none" stroke="black" d="M938.7,-590.68C926.02,-585.68 912.82,-579.64 901.26,-572.65 880.91,-560.35 876.92,-555.07 861.01,-537.4 859.41,-535.63 857.84,-533.64 856.39,-531.66"/>
<polygon fill="black" stroke="black" points="859.02,-530.31 850.55,-523.96 853.21,-534.21 859.02,-530.31"/>
<text text-anchor="middle" x="920.88" y="-559.35" font-family="Times,serif" font-size="14.00">reads</text>
</g>
<!-- p34&#45;&gt;p35 -->
<g id="edge43" class="edge">
<title>p34&#45;&gt;p35</title>
<path fill="none" stroke="black" d="M979.43,-590.27C970.1,-578.66 956.39,-563.99 941.01,-555.4 909.19,-537.63 891.32,-557.64 861.01,-537.4 859.03,-536.08 857.27,-534.3 855.75,-532.4"/>
<polygon fill="black" stroke="black" points="858.42,-531.05 850.24,-524.31 852.43,-534.68 858.42,-531.05"/>
<text text-anchor="middle" x="1014.76" y="-559.35" font-family="Times,serif" font-size="14.00">mapped_reads</text>
</g>
<!-- p36 -->
<g id="node39" class="node">
<title>p36</title>
<ellipse fill="none" stroke="black" cx="763.01" cy="-446.4" rx="281.64" ry="18"/>
<text text-anchor="middle" x="763.01" y="-441.72" font-family="Times,serif" font-size="14.00">NON_TRIMMED:MAP2REF_SWF_CORAL:fastp_report</text>
</g>
<!-- p35&#45;&gt;p36 -->
<g id="edge44" class="edge">
<title>p35&#45;&gt;p36</title>
<path fill="none" stroke="black" d="M846.53,-516.35C838.59,-509.8 813.11,-488.76 792.36,-471.64"/>
<polygon fill="black" stroke="black" points="795.05,-468.49 785.12,-464.83 790.6,-473.89 795.05,-468.49"/>
</g>
<!-- p36&#45;&gt;p43 -->
<g id="edge45" class="edge">
<title>p36&#45;&gt;p43</title>
<path fill="none" stroke="black" d="M749.67,-427.94C716.05,-383.92 628.59,-269.43 601.28,-233.68"/>
<polygon fill="black" stroke="black" points="603.52,-231.85 594.67,-226.03 597.96,-236.1 603.52,-231.85"/>
<text text-anchor="middle" x="729.51" y="-336.65" font-family="Times,serif" font-size="14.00">report_json</text>
</g>
<!-- p37 -->
<g id="node40" class="node">
<title>p37</title>
<ellipse fill="black" stroke="black" cx="763.01" cy="-371.55" rx="1.8" ry="1.8"/>
</g>
<!-- p36&#45;&gt;p37 -->
<g id="edge46" class="edge">
<title>p36&#45;&gt;p37</title>
<path fill="none" stroke="black" d="M763.01,-428.14C763.01,-414.56 763.01,-396.02 763.01,-384.17"/>
<polygon fill="black" stroke="black" points="766.51,-384.41 763.01,-374.41 759.51,-384.41 766.51,-384.41"/>
</g>
<!-- p40 -->
<g id="node42" class="node">
<title>p40</title>
<ellipse fill="none" stroke="black" cx="1159.01" cy="-371.55" rx="3.6" ry="3.6"/>
<text text-anchor="middle" x="1132.16" y="-379.1" font-family="Times,serif" font-size="14.00">concat</text>
</g>
<!-- p39&#45;&gt;p40 -->
<g id="edge50" class="edge">
<title>p39&#45;&gt;p40</title>
<path fill="none" stroke="black" d="M1203.91,-429.91C1183.92,-424.95 1167.33,-418.56 1160.51,-410.4 1154.93,-403.73 1154.71,-393.84 1155.81,-385.85"/>
<polygon fill="black" stroke="black" points="1159.39,-386.84 1158.1,-376.33 1152.55,-385.35 1159.39,-386.84"/>
<text text-anchor="middle" x="1228.26" y="-397.1" font-family="Times,serif" font-size="14.00">non_mapped_reads</text>
</g>
<!-- p39&#45;&gt;p40 -->
<g id="edge51" class="edge">
<title>p39&#45;&gt;p40</title>
<path fill="none" stroke="black" d="M1316.25,-428.14C1313.45,-416.44 1307.89,-401.6 1297.01,-393.15 1277.92,-378.33 1204.78,-374.1 1173.42,-372.95"/>
<polygon fill="black" stroke="black" points="1173.92,-369.44 1163.82,-372.63 1173.71,-376.43 1173.92,-369.44"/>
<text text-anchor="middle" x="1360.76" y="-397.1" font-family="Times,serif" font-size="14.00">mapped_reads</text>
</g>
<!-- p41 -->
<g id="node43" class="node">
<title>p41</title>
<ellipse fill="none" stroke="black" cx="1048.01" cy="-296.7" rx="269.02" ry="18"/>
<text text-anchor="middle" x="1048.01" y="-292.02" font-family="Times,serif" font-size="14.00">NON_TRIMMED:MAP2REF_SWF_SYM:fastp_report</text>
</g>
<!-- p40&#45;&gt;p41 -->
<g id="edge52" class="edge">
<title>p40&#45;&gt;p41</title>
<path fill="none" stroke="black" d="M1156.26,-368.75C1146.28,-362.19 1111,-339.04 1083.39,-320.92"/>
<polygon fill="black" stroke="black" points="1085.66,-317.57 1075.38,-315 1081.82,-323.42 1085.66,-317.57"/>
</g>
<!-- p41&#45;&gt;p43 -->
<g id="edge53" class="edge">
<title>p41&#45;&gt;p43</title>
<path fill="none" stroke="black" d="M947.31,-279.58C833.66,-261.38 657.97,-233.25 607.19,-225.12"/>
<polygon fill="black" stroke="black" points="607.95,-221.54 597.52,-223.41 606.84,-228.45 607.95,-221.54"/>
<text text-anchor="middle" x="860.51" y="-247.4" font-family="Times,serif" font-size="14.00">report_json</text>
</g>
<!-- p42 -->
<g id="node44" class="node">
<title>p42</title>
<ellipse fill="black" stroke="black" cx="1048.01" cy="-221.85" rx="1.8" ry="1.8"/>
</g>
<!-- p41&#45;&gt;p42 -->
<g id="edge54" class="edge">
<title>p41&#45;&gt;p42</title>
<path fill="none" stroke="black" d="M1048.01,-278.44C1048.01,-264.86 1048.01,-246.32 1048.01,-234.47"/>
<polygon fill="black" stroke="black" points="1051.51,-234.71 1048.01,-224.71 1044.51,-234.71 1051.51,-234.71"/>
</g>
<!-- p45 -->
<g id="node46" class="node">
<title>p45</title>
<ellipse fill="none" stroke="black" cx="593.01" cy="-117.2" rx="3.6" ry="3.6"/>
<text text-anchor="middle" x="568.78" y="-124.75" font-family="Times,serif" font-size="14.00">toList</text>
</g>
<!-- p44&#45;&gt;p45 -->
<g id="edge56" class="edge">
<title>p44&#45;&gt;p45</title>
<path fill="none" stroke="black" d="M593.01,-157.37C593.01,-152.08 593.01,-140.9 593.01,-131.83"/>
<polygon fill="black" stroke="black" points="596.51,-131.99 593.01,-121.99 589.51,-131.99 596.51,-131.99"/>
</g>
<!-- p46 -->
<g id="node47" class="node">
<title>p46</title>
<ellipse fill="none" stroke="black" cx="593.01" cy="-58.6" rx="154.33" ry="18"/>
<text text-anchor="middle" x="593.01" y="-53.92" font-family="Times,serif" font-size="14.00">NON_TRIMMED:fastp_parse</text>
</g>
<!-- p45&#45;&gt;p46 -->
<g id="edge57" class="edge">
<title>p45&#45;&gt;p46</title>
<path fill="none" stroke="black" d="M593.01,-113.16C593.01,-108.23 593.01,-98.04 593.01,-87.85"/>
<polygon fill="black" stroke="black" points="596.51,-88.05 593.01,-78.05 589.51,-88.05 596.51,-88.05"/>
</g>
<!-- p47 -->
<g id="node48" class="node">
<title>p47</title>
<ellipse fill="black" stroke="black" cx="593.01" cy="-1.8" rx="1.8" ry="1.8"/>
</g>
<!-- p46&#45;&gt;p47 -->
<g id="edge58" class="edge">
<title>p46&#45;&gt;p47</title>
<path fill="none" stroke="black" d="M593.01,-40.26C593.01,-31.96 593.01,-22.23 593.01,-14.77"/>
<polygon fill="black" stroke="black" points="596.51,-15 593.01,-5 589.51,-15 596.51,-15"/>
</g>
</g>
</svg>
