<?xml version="1.0" encoding="UTF-8" standalone="no"?>
<!DOCTYPE svg PUBLIC "-//W3C//DTD SVG 1.1//EN"
 "http://www.w3.org/Graphics/SVG/1.1/DTD/svg11.dtd">
<!-- Generated by graphviz version 8.1.0 (20230707.2238)
 -->
<!-- Title: flowchart_v3 Pages: 1 -->
<svg width="1465pt" height="1559pt"
 viewBox="0.00 0.00 1465.27 1558.60" xmlns="http://www.w3.org/2000/svg" xmlns:xlink="http://www.w3.org/1999/xlink">
<g id="graph0" class="graph" transform="scale(1 1) rotate(0) translate(4 1554.6)">
<title>flowchart_v3</title>
<polygon fill="white" stroke="none" points="-4,4 -4,-1554.6 1461.27,-1554.6 1461.27,4 -4,4"/>
<!-- p0 -->
<g id="node1" class="node">
<title>p0</title>
<ellipse fill="black" stroke="black" cx="1016.21" cy="-1529.75" rx="3.6" ry="3.6"/>
<text text-anchor="middle" x="948.11" y="-1537.3" font-family="Times,serif" font-size="14.00">Channel.fromPath</text>
</g>
<!-- p1 -->
<g id="node2" class="node">
<title>p1</title>
<ellipse fill="none" stroke="black" cx="1016.21" cy="-1485.55" rx="3.6" ry="3.6"/>
<text text-anchor="middle" x="997.23" y="-1493.1" font-family="Times,serif" font-size="14.00">map</text>
</g>
<!-- p0&#45;&gt;p1 -->
<g id="edge1" class="edge">
<title>p0&#45;&gt;p1</title>
<path fill="none" stroke="black" d="M1016.21,-1525.72C1016.21,-1520.43 1016.21,-1509.25 1016.21,-1500.18"/>
<polygon fill="black" stroke="black" points="1019.71,-1500.34 1016.21,-1490.34 1012.71,-1500.34 1019.71,-1500.34"/>
</g>
<!-- p15 -->
<g id="node3" class="node">
<title>p15</title>
<ellipse fill="none" stroke="black" cx="1016.21" cy="-1410.7" rx="150.12" ry="18"/>
<text text-anchor="middle" x="1016.21" y="-1406.02" font-family="Times,serif" font-size="14.00">TRIM_NANOPORE:ont_trim</text>
</g>
<!-- p1&#45;&gt;p15 -->
<g id="edge2" class="edge">
<title>p1&#45;&gt;p15</title>
<path fill="none" stroke="black" d="M1016.21,-1481.78C1016.21,-1474.86 1016.21,-1456.15 1016.21,-1439.81"/>
<polygon fill="black" stroke="black" points="1019.71,-1440.05 1016.21,-1430.05 1012.71,-1440.05 1019.71,-1440.05"/>
<text text-anchor="middle" x="1036.08" y="-1450.65" font-family="Times,serif" font-size="14.00">reads</text>
</g>
<!-- p17 -->
<g id="node20" class="node">
<title>p17</title>
<ellipse fill="none" stroke="black" cx="1288.21" cy="-1321.45" rx="169.06" ry="18"/>
<text text-anchor="middle" x="1288.21" y="-1316.77" font-family="Times,serif" font-size="14.00">TRIM_NANOPORE:fastp_report</text>
</g>
<!-- p15&#45;&gt;p17 -->
<g id="edge16" class="edge">
<title>p15&#45;&gt;p17</title>
<path fill="none" stroke="black" d="M1067.05,-1393.39C1112.18,-1378.92 1178.23,-1357.73 1226.39,-1342.28"/>
<polygon fill="black" stroke="black" points="1227.24,-1345.36 1235.69,-1338.98 1225.1,-1338.7 1227.24,-1345.36"/>
<text text-anchor="middle" x="1230.21" y="-1361.4" font-family="Times,serif" font-size="14.00">trimmed_reads</text>
</g>
<!-- p16 -->
<g id="node21" class="node">
<title>p16</title>
<ellipse fill="black" stroke="black" cx="1016.21" cy="-1321.45" rx="1.8" ry="1.8"/>
</g>
<!-- p15&#45;&gt;p16 -->
<g id="edge17" class="edge">
<title>p15&#45;&gt;p16</title>
<path fill="none" stroke="black" d="M1016.21,-1392.46C1016.21,-1375.36 1016.21,-1349.59 1016.21,-1334.55"/>
<polygon fill="black" stroke="black" points="1019.71,-1334.57 1016.21,-1324.57 1012.71,-1334.57 1019.71,-1334.57"/>
</g>
<!-- p19 -->
<g id="node23" class="node">
<title>p19</title>
<ellipse fill="none" stroke="black" cx="650.21" cy="-1321.45" rx="3.6" ry="3.6"/>
<text text-anchor="middle" x="623.36" y="-1329" font-family="Times,serif" font-size="14.00">concat</text>
</g>
<!-- p15&#45;&gt;p19 -->
<g id="edge20" class="edge">
<title>p15&#45;&gt;p19</title>
<path fill="none" stroke="black" d="M877.2,-1403.71C809.05,-1395.55 728.1,-1377.7 664.21,-1339.45 661.81,-1338.01 659.64,-1336.01 657.76,-1333.88"/>
<polygon fill="black" stroke="black" points="660.22,-1332.3 651.62,-1326.12 654.49,-1336.32 660.22,-1332.3"/>
<text text-anchor="middle" x="789.21" y="-1361.4" font-family="Times,serif" font-size="14.00">trimmed_reads</text>
</g>
<!-- p2 -->
<g id="node4" class="node">
<title>p2</title>
<ellipse fill="black" stroke="black" cx="700.21" cy="-1529.75" rx="3.6" ry="3.6"/>
<text text-anchor="middle" x="632.11" y="-1537.3" font-family="Times,serif" font-size="14.00">Channel.fromPath</text>
</g>
<!-- p3 -->
<g id="node5" class="node">
<title>p3</title>
<ellipse fill="none" stroke="black" cx="700.21" cy="-1485.55" rx="3.6" ry="3.6"/>
<text text-anchor="middle" x="681.23" y="-1493.1" font-family="Times,serif" font-size="14.00">map</text>
</g>
<!-- p2&#45;&gt;p3 -->
<g id="edge3" class="edge">
<title>p2&#45;&gt;p3</title>
<path fill="none" stroke="black" d="M700.21,-1525.72C700.21,-1520.43 700.21,-1509.25 700.21,-1500.18"/>
<polygon fill="black" stroke="black" points="703.71,-1500.34 700.21,-1490.34 696.71,-1500.34 703.71,-1500.34"/>
</g>
<!-- p12 -->
<g id="node6" class="node">
<title>p12</title>
<ellipse fill="none" stroke="black" cx="700.21" cy="-1410.7" rx="67.52" ry="18"/>
<text text-anchor="middle" x="700.21" y="-1406.02" font-family="Times,serif" font-size="14.00">fasta2fastq</text>
</g>
<!-- p3&#45;&gt;p12 -->
<g id="edge4" class="edge">
<title>p3&#45;&gt;p12</title>
<path fill="none" stroke="black" d="M700.21,-1481.78C700.21,-1474.86 700.21,-1456.15 700.21,-1439.81"/>
<polygon fill="black" stroke="black" points="703.71,-1440.05 700.21,-1430.05 696.71,-1440.05 703.71,-1440.05"/>
<text text-anchor="middle" x="753.46" y="-1450.65" font-family="Times,serif" font-size="14.00">seq_contigs_ch</text>
</g>
<!-- p13 -->
<g id="node17" class="node">
<title>p13</title>
<ellipse fill="none" stroke="black" cx="746.21" cy="-1321.45" rx="72.78" ry="18"/>
<text text-anchor="middle" x="746.21" y="-1316.77" font-family="Times,serif" font-size="14.00">fastp_report</text>
</g>
<!-- p12&#45;&gt;p13 -->
<g id="edge13" class="edge">
<title>p12&#45;&gt;p13</title>
<path fill="none" stroke="black" d="M709.3,-1392.46C715.79,-1380.15 724.64,-1363.36 732.05,-1349.3"/>
<polygon fill="black" stroke="black" points="735.57,-1351.13 737.14,-1340.65 729.38,-1347.87 735.57,-1351.13"/>
</g>
<!-- p12&#45;&gt;p19 -->
<g id="edge21" class="edge">
<title>p12&#45;&gt;p19</title>
<path fill="none" stroke="black" d="M690.33,-1392.46C680.54,-1375.38 665.79,-1349.64 657.17,-1334.59"/>
<polygon fill="black" stroke="black" points="659.79,-1333.12 651.78,-1326.19 653.71,-1336.61 659.79,-1333.12"/>
</g>
<!-- p4 -->
<g id="node7" class="node">
<title>p4</title>
<ellipse fill="black" stroke="black" cx="595.21" cy="-944.2" rx="3.6" ry="3.6"/>
<text text-anchor="middle" x="527.11" y="-951.75" font-family="Times,serif" font-size="14.00">Channel.fromPath</text>
</g>
<!-- p5 -->
<g id="node8" class="node">
<title>p5</title>
<ellipse fill="none" stroke="black" cx="595.21" cy="-900" rx="3.6" ry="3.6"/>
<text text-anchor="middle" x="576.23" y="-907.55" font-family="Times,serif" font-size="14.00">map</text>
</g>
<!-- p4&#45;&gt;p5 -->
<g id="edge5" class="edge">
<title>p4&#45;&gt;p5</title>
<path fill="none" stroke="black" d="M595.21,-940.17C595.21,-934.88 595.21,-923.7 595.21,-914.63"/>
<polygon fill="black" stroke="black" points="598.71,-914.79 595.21,-904.79 591.71,-914.79 598.71,-914.79"/>
</g>
<!-- p6 -->
<g id="node9" class="node">
<title>p6</title>
<ellipse fill="none" stroke="black" cx="595.21" cy="-834.52" rx="3.6" ry="3.6"/>
<text text-anchor="middle" x="564.23" y="-842.08" font-family="Times,serif" font-size="14.00">flatMap</text>
</g>
<!-- p5&#45;&gt;p6 -->
<g id="edge6" class="edge">
<title>p5&#45;&gt;p6</title>
<path fill="none" stroke="black" d="M595.21,-895.94C595.21,-887.67 595.21,-864.5 595.21,-849.38"/>
<polygon fill="black" stroke="black" points="598.71,-849.41 595.21,-839.41 591.71,-849.41 598.71,-849.41"/>
</g>
<!-- p7 -->
<g id="node10" class="node">
<title>p7</title>
<ellipse fill="none" stroke="black" cx="595.21" cy="-770.9" rx="3.6" ry="3.6"/>
<text text-anchor="middle" x="567.98" y="-778.45" font-family="Times,serif" font-size="14.00">collate</text>
</g>
<!-- p6&#45;&gt;p7 -->
<g id="edge7" class="edge">
<title>p6&#45;&gt;p7</title>
<path fill="none" stroke="black" d="M595.21,-830.55C595.21,-822.6 595.21,-800.45 595.21,-785.76"/>
<polygon fill="black" stroke="black" points="598.71,-785.99 595.21,-775.99 591.71,-785.99 598.71,-785.99"/>
</g>
<!-- p36 -->
<g id="node11" class="node">
<title>p36</title>
<ellipse fill="none" stroke="black" cx="389.21" cy="-681.65" rx="176.95" ry="18"/>
<text text-anchor="middle" x="389.21" y="-676.98" font-family="Times,serif" font-size="14.00">MAP2REF_SWF_CORAL:map2ref</text>
</g>
<!-- p7&#45;&gt;p36 -->
<g id="edge8" class="edge">
<title>p7&#45;&gt;p36</title>
<path fill="none" stroke="black" d="M591.75,-768.83C578.97,-764.82 533.2,-750.19 496.71,-734.9 474.77,-725.7 450.93,-714.27 431.28,-704.44"/>
<polygon fill="black" stroke="black" points="433.22,-700.99 422.71,-699.62 430.06,-707.24 433.22,-700.99"/>
<text text-anchor="middle" x="542.96" y="-721.6" font-family="Times,serif" font-size="14.00">reference_ch</text>
</g>
<!-- p37 -->
<g id="node40" class="node">
<title>p37</title>
<ellipse fill="none" stroke="black" cx="565.21" cy="-608.65" rx="183.26" ry="18"/>
<text text-anchor="middle" x="565.21" y="-603.98" font-family="Times,serif" font-size="14.00">MAP2REF_SWF_CORAL:split_bam</text>
</g>
<!-- p7&#45;&gt;p37 -->
<g id="edge45" class="edge">
<title>p7&#45;&gt;p37</title>
<path fill="none" stroke="black" d="M594.88,-766.83C594,-758.74 591.43,-736.23 588.21,-717.65 583.45,-690.14 576.66,-658.99 571.69,-637.23"/>
<polygon fill="black" stroke="black" points="574.94,-636.74 569.28,-627.78 568.12,-638.31 574.94,-636.74"/>
<text text-anchor="middle" x="630.96" y="-676.98" font-family="Times,serif" font-size="14.00">reference_ch</text>
</g>
<!-- p36&#45;&gt;p37 -->
<g id="edge44" class="edge">
<title>p36&#45;&gt;p37</title>
<path fill="none" stroke="black" d="M430.92,-663.82C455.51,-653.9 486.84,-641.27 513.05,-630.69"/>
<polygon fill="black" stroke="black" points="514.22,-633.59 522.19,-626.6 511.61,-627.1 514.22,-633.59"/>
</g>
<!-- p8 -->
<g id="node12" class="node">
<title>p8</title>
<ellipse fill="black" stroke="black" cx="1092.21" cy="-834.52" rx="3.6" ry="3.6"/>
<text text-anchor="middle" x="1024.11" y="-842.08" font-family="Times,serif" font-size="14.00">Channel.fromPath</text>
</g>
<!-- p9 -->
<g id="node13" class="node">
<title>p9</title>
<ellipse fill="none" stroke="black" cx="1092.21" cy="-770.9" rx="3.6" ry="3.6"/>
<text text-anchor="middle" x="1073.23" y="-778.45" font-family="Times,serif" font-size="14.00">map</text>
</g>
<!-- p8&#45;&gt;p9 -->
<g id="edge9" class="edge">
<title>p8&#45;&gt;p9</title>
<path fill="none" stroke="black" d="M1092.21,-830.55C1092.21,-822.6 1092.21,-800.45 1092.21,-785.76"/>
<polygon fill="black" stroke="black" points="1095.71,-785.99 1092.21,-775.99 1088.71,-785.99 1095.71,-785.99"/>
</g>
<!-- p10 -->
<g id="node14" class="node">
<title>p10</title>
<ellipse fill="none" stroke="black" cx="1092.21" cy="-681.65" rx="3.6" ry="3.6"/>
<text text-anchor="middle" x="1061.23" y="-689.2" font-family="Times,serif" font-size="14.00">flatMap</text>
</g>
<!-- p9&#45;&gt;p10 -->
<g id="edge10" class="edge">
<title>p9&#45;&gt;p10</title>
<path fill="none" stroke="black" d="M1092.21,-767C1092.21,-756.13 1092.21,-717.41 1092.21,-696.42"/>
<polygon fill="black" stroke="black" points="1095.71,-696.65 1092.21,-686.65 1088.71,-696.65 1095.71,-696.65"/>
</g>
<!-- p11 -->
<g id="node15" class="node">
<title>p11</title>
<ellipse fill="none" stroke="black" cx="1092.21" cy="-608.65" rx="3.6" ry="3.6"/>
<text text-anchor="middle" x="1064.98" y="-616.2" font-family="Times,serif" font-size="14.00">collate</text>
</g>
<!-- p10&#45;&gt;p11 -->
<g id="edge11" class="edge">
<title>p10&#45;&gt;p11</title>
<path fill="none" stroke="black" d="M1092.21,-677.6C1092.21,-668.38 1092.21,-640.42 1092.21,-623.38"/>
<polygon fill="black" stroke="black" points="1095.71,-623.61 1092.21,-613.61 1088.71,-623.61 1095.71,-623.61"/>
</g>
<!-- p41 -->
<g id="node16" class="node">
<title>p41</title>
<ellipse fill="none" stroke="black" cx="968.21" cy="-519.4" rx="164.32" ry="18"/>
<text text-anchor="middle" x="968.21" y="-514.73" font-family="Times,serif" font-size="14.00">MAP2REF_SWF_SYM:map2ref</text>
</g>
<!-- p11&#45;&gt;p41 -->
<g id="edge12" class="edge">
<title>p11&#45;&gt;p41</title>
<path fill="none" stroke="black" d="M1089.62,-605.83C1078.43,-597.95 1033.36,-566.24 1001.41,-543.76"/>
<polygon fill="black" stroke="black" points="1003.97,-540.58 993.78,-537.69 999.95,-546.31 1003.97,-540.58"/>
<text text-anchor="middle" x="1086.96" y="-559.35" font-family="Times,serif" font-size="14.00">reference_ch</text>
</g>
<!-- p42 -->
<g id="node44" class="node">
<title>p42</title>
<ellipse fill="none" stroke="black" cx="1039.21" cy="-446.4" rx="170.63" ry="18"/>
<text text-anchor="middle" x="1039.21" y="-441.72" font-family="Times,serif" font-size="14.00">MAP2REF_SWF_SYM:split_bam</text>
</g>
<!-- p11&#45;&gt;p42 -->
<g id="edge53" class="edge">
<title>p11&#45;&gt;p42</title>
<path fill="none" stroke="black" d="M1095.3,-606.31C1103.72,-602.49 1127.13,-590.6 1137.21,-572.65 1152.73,-544.99 1157.57,-528.57 1141.21,-501.4 1132.69,-487.25 1119.08,-476.61 1104.54,-468.69"/>
<polygon fill="black" stroke="black" points="1106.4,-465.21 1095.9,-463.87 1103.27,-471.47 1106.4,-465.21"/>
<text text-anchor="middle" x="1196.96" y="-514.73" font-family="Times,serif" font-size="14.00">reference_ch</text>
</g>
<!-- p41&#45;&gt;p42 -->
<g id="edge52" class="edge">
<title>p41&#45;&gt;p42</title>
<path fill="none" stroke="black" d="M985.4,-501.21C994.12,-492.49 1004.87,-481.74 1014.46,-472.15"/>
<polygon fill="black" stroke="black" points="1016.58,-474.97 1021.18,-465.43 1011.63,-470.03 1016.58,-474.97"/>
</g>
<!-- p46 -->
<g id="node18" class="node">
<title>p46</title>
<ellipse fill="none" stroke="black" cx="776.21" cy="-221.85" rx="3.6" ry="3.6"/>
<text text-anchor="middle" x="749.36" y="-229.4" font-family="Times,serif" font-size="14.00">concat</text>
</g>
<!-- p13&#45;&gt;p46 -->
<g id="edge14" class="edge">
<title>p13&#45;&gt;p46</title>
<path fill="none" stroke="black" d="M757.72,-1303.3C766.18,-1289.03 776.21,-1267.84 776.21,-1247.6 776.21,-1247.6 776.21,-1247.6 776.21,-295.7 776.21,-275.19 776.21,-251.43 776.21,-236.77"/>
<polygon fill="black" stroke="black" points="779.71,-236.9 776.21,-226.9 772.71,-236.9 779.71,-236.9"/>
</g>
<!-- p14 -->
<g id="node19" class="node">
<title>p14</title>
<ellipse fill="black" stroke="black" cx="746.21" cy="-1246.6" rx="1.8" ry="1.8"/>
</g>
<!-- p13&#45;&gt;p14 -->
<g id="edge15" class="edge">
<title>p13&#45;&gt;p14</title>
<path fill="none" stroke="black" d="M746.21,-1303.19C746.21,-1289.61 746.21,-1271.07 746.21,-1259.22"/>
<polygon fill="black" stroke="black" points="749.71,-1259.46 746.21,-1249.46 742.71,-1259.46 749.71,-1259.46"/>
</g>
<!-- p47 -->
<g id="node48" class="node">
<title>p47</title>
<ellipse fill="none" stroke="black" cx="776.21" cy="-161.4" rx="3.6" ry="3.6"/>
<text text-anchor="middle" x="749.36" y="-168.95" font-family="Times,serif" font-size="14.00">collect</text>
</g>
<!-- p46&#45;&gt;p47 -->
<g id="edge59" class="edge">
<title>p46&#45;&gt;p47</title>
<path fill="none" stroke="black" d="M776.21,-218.03C776.21,-210.57 776.21,-189.9 776.21,-175.97"/>
<polygon fill="black" stroke="black" points="779.71,-176.33 776.21,-166.33 772.71,-176.33 779.71,-176.33"/>
<text text-anchor="middle" x="829.08" y="-186.95" font-family="Times,serif" font-size="14.00">fastp_parse_ch</text>
</g>
<!-- p17&#45;&gt;p46 -->
<g id="edge18" class="edge">
<title>p17&#45;&gt;p46</title>
<path fill="none" stroke="black" d="M1288.21,-1303.08C1288.21,-1288.32 1288.21,-1266.57 1288.21,-1247.6 1288.21,-1247.6 1288.21,-1247.6 1288.21,-295.7 1288.21,-244.03 874.26,-226.38 790.78,-223.35"/>
<polygon fill="black" stroke="black" points="791.15,-219.82 781.04,-222.97 790.91,-226.82 791.15,-219.82"/>
<text text-anchor="middle" x="1328.71" y="-829.85" font-family="Times,serif" font-size="14.00">report_json</text>
</g>
<!-- p18 -->
<g id="node22" class="node">
<title>p18</title>
<ellipse fill="black" stroke="black" cx="1318.21" cy="-1246.6" rx="1.8" ry="1.8"/>
</g>
<!-- p17&#45;&gt;p18 -->
<g id="edge19" class="edge">
<title>p17&#45;&gt;p18</title>
<path fill="none" stroke="black" d="M1295.32,-1303.19C1301.03,-1289.31 1308.89,-1270.24 1313.75,-1258.43"/>
<polygon fill="black" stroke="black" points="1317.28,-1260.04 1317.86,-1249.46 1310.81,-1257.37 1317.28,-1260.04"/>
</g>
<!-- p20 -->
<g id="node24" class="node">
<title>p20</title>
<ellipse fill="none" stroke="black" cx="641.21" cy="-1246.6" rx="3.6" ry="3.6"/>
<text text-anchor="middle" x="614.36" y="-1254.15" font-family="Times,serif" font-size="14.00">collect</text>
</g>
<!-- p19&#45;&gt;p20 -->
<g id="edge22" class="edge">
<title>p19&#45;&gt;p20</title>
<path fill="none" stroke="black" d="M649.87,-1317.68C648.74,-1308.53 645.07,-1278.83 642.88,-1261.16"/>
<polygon fill="black" stroke="black" points="646.25,-1260.86 641.55,-1251.37 639.3,-1261.72 646.25,-1260.86"/>
<text text-anchor="middle" x="657.08" y="-1272.15" font-family="Times,serif" font-size="14.00">file</text>
</g>
<!-- p22 -->
<g id="node27" class="node">
<title>p22</title>
<ellipse fill="none" stroke="black" cx="701.21" cy="-1246.6" rx="3.6" ry="3.6"/>
<text text-anchor="middle" x="674.36" y="-1254.15" font-family="Times,serif" font-size="14.00">collect</text>
</g>
<!-- p19&#45;&gt;p22 -->
<g id="edge25" class="edge">
<title>p19&#45;&gt;p22</title>
<path fill="none" stroke="black" d="M651.91,-1318.03C658.26,-1308.95 680.89,-1276.62 693.16,-1259.09"/>
<polygon fill="black" stroke="black" points="696.59,-1261.31 699.45,-1251.11 690.85,-1257.29 696.59,-1261.31"/>
<text text-anchor="middle" x="697.08" y="-1272.15" font-family="Times,serif" font-size="14.00">file</text>
</g>
<!-- p24 -->
<g id="node29" class="node">
<title>p24</title>
<ellipse fill="none" stroke="black" cx="581.21" cy="-1246.6" rx="3.6" ry="3.6"/>
<text text-anchor="middle" x="554.36" y="-1254.15" font-family="Times,serif" font-size="14.00">collect</text>
</g>
<!-- p19&#45;&gt;p24 -->
<g id="edge28" class="edge">
<title>p19&#45;&gt;p24</title>
<path fill="none" stroke="black" d="M648.22,-1318.35C639.87,-1309.53 607.35,-1275.2 590.88,-1257.81"/>
<polygon fill="black" stroke="black" points="593.76,-1255.71 584.34,-1250.85 588.68,-1260.52 593.76,-1255.71"/>
<text text-anchor="middle" x="627.08" y="-1272.15" font-family="Times,serif" font-size="14.00">file</text>
</g>
<!-- p31 -->
<g id="node35" class="node">
<title>p31</title>
<ellipse fill="none" stroke="black" cx="368.21" cy="-834.52" rx="3.6" ry="3.6"/>
<text text-anchor="middle" x="351.48" y="-842.08" font-family="Times,serif" font-size="14.00">join</text>
</g>
<!-- p19&#45;&gt;p31 -->
<g id="edge36" class="edge">
<title>p19&#45;&gt;p31</title>
<path fill="none" stroke="black" d="M646.64,-1320.33C614,-1319.12 368.21,-1308.03 368.21,-1247.6 368.21,-1247.6 368.21,-1247.6 368.21,-899 368.21,-881.84 368.21,-862.08 368.21,-849.22"/>
<polygon fill="black" stroke="black" points="371.71,-849.44 368.21,-839.44 364.71,-849.44 371.71,-849.44"/>
<text text-anchor="middle" x="379.08" y="-1078" font-family="Times,serif" font-size="14.00">file</text>
</g>
<!-- p21 -->
<g id="node25" class="node">
<title>p21</title>
<ellipse fill="none" stroke="black" cx="639.21" cy="-1202.4" rx="3.6" ry="3.6"/>
<text text-anchor="middle" x="614.98" y="-1209.95" font-family="Times,serif" font-size="14.00">toList</text>
</g>
<!-- p20&#45;&gt;p21 -->
<g id="edge23" class="edge">
<title>p20&#45;&gt;p21</title>
<path fill="none" stroke="black" d="M641.07,-1242.57C640.82,-1237.28 640.29,-1226.1 639.86,-1217.03"/>
<polygon fill="black" stroke="black" points="643.31,-1217.01 639.34,-1207.19 636.32,-1217.34 643.31,-1217.01"/>
</g>
<!-- p26 -->
<g id="node26" class="node">
<title>p26</title>
<ellipse fill="none" stroke="black" cx="642.21" cy="-1136.93" rx="3.6" ry="3.6"/>
<text text-anchor="middle" x="661.48" y="-1144.48" font-family="Times,serif" font-size="14.00">merge</text>
</g>
<!-- p21&#45;&gt;p26 -->
<g id="edge24" class="edge">
<title>p21&#45;&gt;p26</title>
<path fill="none" stroke="black" d="M639.12,-1198.47C638.99,-1194.47 638.79,-1187.1 638.71,-1180.8 638.62,-1173.13 638.19,-1171.2 638.71,-1163.55 638.97,-1159.69 639.46,-1155.52 639.98,-1151.69"/>
<polygon fill="black" stroke="black" points="643.58,-1152.33 641.67,-1141.91 636.66,-1151.25 643.58,-1152.33"/>
<text text-anchor="middle" x="662.46" y="-1167.5" font-family="Times,serif" font-size="14.00">names</text>
</g>
<!-- p27 -->
<g id="node31" class="node">
<title>p27</title>
<ellipse fill="none" stroke="black" cx="573.21" cy="-1082.68" rx="3.6" ry="3.6"/>
<text text-anchor="middle" x="546.73" y="-1090.23" font-family="Times,serif" font-size="14.00">merge</text>
</g>
<!-- p26&#45;&gt;p27 -->
<g id="edge31" class="edge">
<title>p26&#45;&gt;p27</title>
<path fill="none" stroke="black" d="M639.59,-1133.94C630.62,-1127.15 600.82,-1104.58 584.37,-1092.12"/>
<polygon fill="black" stroke="black" points="586.92,-1088.91 576.83,-1085.66 582.69,-1094.49 586.92,-1088.91"/>
</g>
<!-- p23 -->
<g id="node28" class="node">
<title>p23</title>
<ellipse fill="none" stroke="black" cx="702.21" cy="-1202.4" rx="3.6" ry="3.6"/>
<text text-anchor="middle" x="677.98" y="-1209.95" font-family="Times,serif" font-size="14.00">toList</text>
</g>
<!-- p22&#45;&gt;p23 -->
<g id="edge26" class="edge">
<title>p22&#45;&gt;p23</title>
<path fill="none" stroke="black" d="M701.28,-1242.57C701.41,-1237.28 701.67,-1226.1 701.89,-1217.03"/>
<polygon fill="black" stroke="black" points="705.41,-1217.27 702.14,-1207.19 698.41,-1217.1 705.41,-1217.27"/>
</g>
<!-- p23&#45;&gt;p26 -->
<g id="edge27" class="edge">
<title>p23&#45;&gt;p26</title>
<path fill="none" stroke="black" d="M701.6,-1198.71C699.98,-1192.04 694.98,-1174.52 685.21,-1163.55 677.01,-1154.35 664.7,-1147.47 655.34,-1143.18"/>
<polygon fill="black" stroke="black" points="656.93,-1139.63 646.35,-1139.03 654.25,-1146.1 656.93,-1139.63"/>
<text text-anchor="middle" x="716.08" y="-1167.5" font-family="Times,serif" font-size="14.00">paths</text>
</g>
<!-- p25 -->
<g id="node30" class="node">
<title>p25</title>
<ellipse fill="none" stroke="black" cx="573.21" cy="-1172.18" rx="3.6" ry="3.6"/>
<text text-anchor="middle" x="548.98" y="-1179.73" font-family="Times,serif" font-size="14.00">toList</text>
</g>
<!-- p24&#45;&gt;p25 -->
<g id="edge29" class="edge">
<title>p24&#45;&gt;p25</title>
<path fill="none" stroke="black" d="M580.91,-1242.85C579.91,-1233.83 576.7,-1204.75 574.75,-1187.14"/>
<polygon fill="black" stroke="black" points="578.13,-1186.8 573.55,-1177.25 571.17,-1187.57 578.13,-1186.8"/>
</g>
<!-- p25&#45;&gt;p27 -->
<g id="edge30" class="edge">
<title>p25&#45;&gt;p27</title>
<path fill="none" stroke="black" d="M573.21,-1168.26C573.21,-1157.37 573.21,-1118.53 573.21,-1097.48"/>
<polygon fill="black" stroke="black" points="576.71,-1097.69 573.21,-1087.69 569.71,-1097.69 576.71,-1097.69"/>
<text text-anchor="middle" x="596.83" y="-1132.25" font-family="Times,serif" font-size="14.00">output</text>
</g>
<!-- p28 -->
<g id="node32" class="node">
<title>p28</title>
<ellipse fill="none" stroke="black" cx="572.21" cy="-1002.8" rx="175.9" ry="18"/>
<text text-anchor="middle" x="572.21" y="-998.13" font-family="Times,serif" font-size="14.00">EXTRACT_BACTERIA:kaiju_multi</text>
</g>
<!-- p27&#45;&gt;p28 -->
<g id="edge32" class="edge">
<title>p27&#45;&gt;p28</title>
<path fill="none" stroke="black" d="M573.17,-1078.72C573.07,-1071.02 572.8,-1049.73 572.57,-1031.81"/>
<polygon fill="black" stroke="black" points="576.06,-1031.92 572.43,-1021.96 569.06,-1032.01 576.06,-1031.92"/>
<text text-anchor="middle" x="646.33" y="-1042.75" font-family="Times,serif" font-size="14.00">kaiju_multi_input_ch</text>
</g>
<!-- p29 -->
<g id="node33" class="node">
<title>p29</title>
<ellipse fill="none" stroke="black" cx="529.21" cy="-944.2" rx="3.6" ry="3.6"/>
<text text-anchor="middle" x="502.36" y="-927.3" font-family="Times,serif" font-size="14.00">flatten</text>
</g>
<!-- p28&#45;&gt;p29 -->
<g id="edge33" class="edge">
<title>p28&#45;&gt;p29</title>
<path fill="none" stroke="black" d="M559.07,-984.51C552.15,-975.39 543.85,-964.47 537.76,-956.45"/>
<polygon fill="black" stroke="black" points="539.99,-954.61 531.16,-948.77 534.42,-958.85 539.99,-954.61"/>
</g>
<!-- p30 -->
<g id="node34" class="node">
<title>p30</title>
<ellipse fill="none" stroke="black" cx="445.21" cy="-900" rx="3.6" ry="3.6"/>
<text text-anchor="middle" x="426.23" y="-907.55" font-family="Times,serif" font-size="14.00">map</text>
</g>
<!-- p29&#45;&gt;p30 -->
<g id="edge34" class="edge">
<title>p29&#45;&gt;p30</title>
<path fill="none" stroke="black" d="M526.41,-941.8C515.85,-936.49 477.96,-917.45 457.89,-907.37"/>
<polygon fill="black" stroke="black" points="459.61,-903.81 449.1,-902.45 456.47,-910.07 459.61,-903.81"/>
</g>
<!-- p30&#45;&gt;p31 -->
<g id="edge35" class="edge">
<title>p30&#45;&gt;p31</title>
<path fill="none" stroke="black" d="M442.28,-897.2C436.76,-893.78 424.52,-885.98 414.96,-878.4 401.52,-867.75 387.14,-854.2 377.93,-845.21"/>
<polygon fill="black" stroke="black" points="380.82,-843.16 371.26,-838.6 375.89,-848.13 380.82,-843.16"/>
<text text-anchor="middle" x="503.33" y="-865.1" font-family="Times,serif" font-size="14.00">kaiju_multi_out_clean_ch</text>
</g>
<!-- p32 -->
<g id="node36" class="node">
<title>p32</title>
<ellipse fill="none" stroke="black" cx="325.21" cy="-770.9" rx="164.85" ry="18"/>
<text text-anchor="middle" x="325.21" y="-766.23" font-family="Times,serif" font-size="14.00">EXTRACT_BACTERIA:split_bac</text>
</g>
<!-- p31&#45;&gt;p32 -->
<g id="edge37" class="edge">
<title>p31&#45;&gt;p32</title>
<path fill="none" stroke="black" d="M366.36,-830.88C362.34,-825.11 352.42,-810.89 343.32,-797.86"/>
<polygon fill="black" stroke="black" points="345.84,-796.35 337.24,-790.15 340.1,-800.35 345.84,-796.35"/>
</g>
<!-- p32&#45;&gt;p36 -->
<g id="edge43" class="edge">
<title>p32&#45;&gt;p36</title>
<path fill="none" stroke="black" d="M348,-752.87C354.11,-747.58 360.35,-741.41 365.21,-734.9 370.75,-727.48 375.43,-718.57 379.14,-710.23"/>
<polygon fill="black" stroke="black" points="382.73,-711.7 383.32,-701.12 376.27,-709.02 382.73,-711.7"/>
<text text-anchor="middle" x="395.08" y="-721.6" font-family="Times,serif" font-size="14.00">reads</text>
</g>
<!-- p33 -->
<g id="node37" class="node">
<title>p33</title>
<ellipse fill="none" stroke="black" cx="190.21" cy="-681.65" rx="3.6" ry="3.6"/>
<text text-anchor="middle" x="163.36" y="-689.2" font-family="Times,serif" font-size="14.00">concat</text>
</g>
<!-- p32&#45;&gt;p33 -->
<g id="edge38" class="edge">
<title>p32&#45;&gt;p33</title>
<path fill="none" stroke="black" d="M225.32,-756.23C214.26,-751.06 204.15,-744.14 196.21,-734.9 187.14,-724.35 186.74,-707.85 187.9,-696.22"/>
<polygon fill="black" stroke="black" points="191.5,-696.87 189.56,-686.45 184.58,-695.8 191.5,-696.87"/>
<text text-anchor="middle" x="248.71" y="-721.6" font-family="Times,serif" font-size="14.00">bacteria_reads</text>
</g>
<!-- p32&#45;&gt;p33 -->
<g id="edge39" class="edge">
<title>p32&#45;&gt;p33</title>
<path fill="none" stroke="black" d="M321.62,-752.47C318.3,-740.84 312.16,-726.17 301.21,-717.65 266.25,-690.47 240.97,-722.79 203.21,-699.65 200.89,-698.23 198.84,-696.23 197.09,-694.11"/>
<polygon fill="black" stroke="black" points="199.8,-692.86 191.46,-686.33 193.91,-696.64 199.8,-692.86"/>
<text text-anchor="middle" x="335.08" y="-721.6" font-family="Times,serif" font-size="14.00">reads</text>
</g>
<!-- p34 -->
<g id="node38" class="node">
<title>p34</title>
<ellipse fill="none" stroke="black" cx="182.21" cy="-608.65" rx="182.21" ry="18"/>
<text text-anchor="middle" x="182.21" y="-603.98" font-family="Times,serif" font-size="14.00">EXTRACT_BACTERIA:fastp_report</text>
</g>
<!-- p33&#45;&gt;p34 -->
<g id="edge40" class="edge">
<title>p33&#45;&gt;p34</title>
<path fill="none" stroke="black" d="M189.87,-677.6C189.09,-670.68 187.12,-653.19 185.37,-637.68"/>
<polygon fill="black" stroke="black" points="188.75,-637.47 184.16,-627.93 181.8,-638.26 188.75,-637.47"/>
</g>
<!-- p34&#45;&gt;p46 -->
<g id="edge41" class="edge">
<title>p34&#45;&gt;p46</title>
<path fill="none" stroke="black" d="M182.21,-590.27C182.21,-572.66 182.21,-544.64 182.21,-520.4 182.21,-520.4 182.21,-520.4 182.21,-295.7 182.21,-235.42 670.42,-224.56 761.63,-223.06"/>
<polygon fill="black" stroke="black" points="761.47,-226.55 771.42,-222.9 761.36,-219.55 761.47,-226.55"/>
<text text-anchor="middle" x="222.71" y="-397.1" font-family="Times,serif" font-size="14.00">report_json</text>
</g>
<!-- p35 -->
<g id="node39" class="node">
<title>p35</title>
<ellipse fill="black" stroke="black" cx="212.21" cy="-519.4" rx="1.8" ry="1.8"/>
</g>
<!-- p34&#45;&gt;p35 -->
<g id="edge42" class="edge">
<title>p34&#45;&gt;p35</title>
<path fill="none" stroke="black" d="M189.48,-590.31C191.73,-584.71 194.16,-578.45 196.21,-572.65 201.12,-558.7 205.99,-542.37 209.04,-531.73"/>
<polygon fill="black" stroke="black" points="212.67,-532.72 212.01,-522.14 205.93,-530.83 212.67,-532.72"/>
</g>
<!-- p37&#45;&gt;p41 -->
<g id="edge51" class="edge">
<title>p37&#45;&gt;p41</title>
<path fill="none" stroke="black" d="M638.66,-591.75C708.44,-576.64 813.22,-553.96 885.81,-538.24"/>
<polygon fill="black" stroke="black" points="886.25,-541.51 895.28,-535.97 884.77,-534.67 886.25,-541.51"/>
<text text-anchor="middle" x="823.08" y="-559.35" font-family="Times,serif" font-size="14.00">reads</text>
</g>
<!-- p38 -->
<g id="node41" class="node">
<title>p38</title>
<ellipse fill="none" stroke="black" cx="552.21" cy="-519.4" rx="3.6" ry="3.6"/>
<text text-anchor="middle" x="525.36" y="-526.95" font-family="Times,serif" font-size="14.00">concat</text>
</g>
<!-- p37&#45;&gt;p38 -->
<g id="edge46" class="edge">
<title>p37&#45;&gt;p38</title>
<path fill="none" stroke="black" d="M528.29,-590.72C521.53,-585.87 515.39,-579.89 511.46,-572.65 501.75,-554.75 524.96,-536.62 540.2,-527.14"/>
<polygon fill="black" stroke="black" points="541.39,-529.92 548.3,-521.89 537.89,-523.85 541.39,-529.92"/>
<text text-anchor="middle" x="532.08" y="-559.35" font-family="Times,serif" font-size="14.00">reads</text>
</g>
<!-- p37&#45;&gt;p38 -->
<g id="edge47" class="edge">
<title>p37&#45;&gt;p38</title>
<path fill="none" stroke="black" d="M562.64,-590.41C560.17,-573.82 556.48,-549.07 554.22,-533.87"/>
<polygon fill="black" stroke="black" points="557.6,-533.8 552.66,-524.42 550.67,-534.83 557.6,-533.8"/>
<text text-anchor="middle" x="611.96" y="-559.35" font-family="Times,serif" font-size="14.00">mapped_reads</text>
</g>
<!-- p39 -->
<g id="node42" class="node">
<title>p39</title>
<ellipse fill="none" stroke="black" cx="552.21" cy="-446.4" rx="196.41" ry="18"/>
<text text-anchor="middle" x="552.21" y="-441.72" font-family="Times,serif" font-size="14.00">MAP2REF_SWF_CORAL:fastp_report</text>
</g>
<!-- p38&#45;&gt;p39 -->
<g id="edge48" class="edge">
<title>p38&#45;&gt;p39</title>
<path fill="none" stroke="black" d="M552.21,-515.35C552.21,-508.43 552.21,-490.94 552.21,-475.43"/>
<polygon fill="black" stroke="black" points="555.71,-475.68 552.21,-465.68 548.71,-475.68 555.71,-475.68"/>
</g>
<!-- p39&#45;&gt;p46 -->
<g id="edge49" class="edge">
<title>p39&#45;&gt;p46</title>
<path fill="none" stroke="black" d="M553.02,-427.99C554.55,-411.3 558.9,-386.03 571.21,-367.95 622.35,-292.83 726.1,-243.85 762.9,-228.24"/>
<polygon fill="black" stroke="black" points="764.01,-231.16 771.93,-224.12 761.35,-224.68 764.01,-231.16"/>
<text text-anchor="middle" x="640.71" y="-336.65" font-family="Times,serif" font-size="14.00">report_json</text>
</g>
<!-- p40 -->
<g id="node43" class="node">
<title>p40</title>
<ellipse fill="black" stroke="black" cx="582.21" cy="-371.55" rx="1.8" ry="1.8"/>
</g>
<!-- p39&#45;&gt;p40 -->
<g id="edge50" class="edge">
<title>p39&#45;&gt;p40</title>
<path fill="none" stroke="black" d="M559.32,-428.14C565.03,-414.26 572.89,-395.19 577.75,-383.38"/>
<polygon fill="black" stroke="black" points="581.28,-384.99 581.86,-374.41 574.81,-382.32 581.28,-384.99"/>
</g>
<!-- p43 -->
<g id="node45" class="node">
<title>p43</title>
<ellipse fill="none" stroke="black" cx="988.21" cy="-371.55" rx="3.6" ry="3.6"/>
<text text-anchor="middle" x="961.36" y="-379.1" font-family="Times,serif" font-size="14.00">concat</text>
</g>
<!-- p42&#45;&gt;p43 -->
<g id="edge54" class="edge">
<title>p42&#45;&gt;p43</title>
<path fill="none" stroke="black" d="M958.99,-430.09C949.89,-425.21 941.74,-418.8 935.71,-410.4 931.24,-404.17 931.39,-399.48 935.71,-393.15 944.14,-380.78 961.23,-375.84 973.62,-373.86"/>
<polygon fill="black" stroke="black" points="973.73,-377.26 983.28,-372.69 972.96,-370.31 973.73,-377.26"/>
<text text-anchor="middle" x="1004.46" y="-397.1" font-family="Times,serif" font-size="14.00">non_mapped_reads</text>
</g>
<!-- p42&#45;&gt;p43 -->
<g id="edge55" class="edge">
<title>p42&#45;&gt;p43</title>
<path fill="none" stroke="black" d="M1061.09,-428.34C1071.9,-417.84 1080.95,-404.29 1072.21,-393.15 1063.69,-382.29 1024.09,-376.4 1002.44,-373.95"/>
<polygon fill="black" stroke="black" points="1003.02,-370.39 992.72,-372.85 1002.31,-377.35 1003.02,-370.39"/>
<text text-anchor="middle" x="1126.96" y="-397.1" font-family="Times,serif" font-size="14.00">mapped_reads</text>
</g>
<!-- p44 -->
<g id="node46" class="node">
<title>p44</title>
<ellipse fill="none" stroke="black" cx="988.21" cy="-296.7" rx="183.79" ry="18"/>
<text text-anchor="middle" x="988.21" y="-292.02" font-family="Times,serif" font-size="14.00">MAP2REF_SWF_SYM:fastp_report</text>
</g>
<!-- p43&#45;&gt;p44 -->
<g id="edge56" class="edge">
<title>p43&#45;&gt;p44</title>
<path fill="none" stroke="black" d="M988.21,-367.78C988.21,-360.86 988.21,-342.15 988.21,-325.81"/>
<polygon fill="black" stroke="black" points="991.71,-326.05 988.21,-316.05 984.71,-326.05 991.71,-326.05"/>
</g>
<!-- p44&#45;&gt;p46 -->
<g id="edge57" class="edge">
<title>p44&#45;&gt;p46</title>
<path fill="none" stroke="black" d="M939.31,-278.9C890.73,-262.2 819.36,-237.68 789.8,-227.52"/>
<polygon fill="black" stroke="black" points="791.23,-223.97 780.63,-224.03 788.95,-230.59 791.23,-223.97"/>
<text text-anchor="middle" x="922.71" y="-247.4" font-family="Times,serif" font-size="14.00">report_json</text>
</g>
<!-- p45 -->
<g id="node47" class="node">
<title>p45</title>
<ellipse fill="black" stroke="black" cx="988.21" cy="-221.85" rx="1.8" ry="1.8"/>
</g>
<!-- p44&#45;&gt;p45 -->
<g id="edge58" class="edge">
<title>p44&#45;&gt;p45</title>
<path fill="none" stroke="black" d="M988.21,-278.44C988.21,-264.86 988.21,-246.32 988.21,-234.47"/>
<polygon fill="black" stroke="black" points="991.71,-234.71 988.21,-224.71 984.71,-234.71 991.71,-234.71"/>
</g>
<!-- p48 -->
<g id="node49" class="node">
<title>p48</title>
<ellipse fill="none" stroke="black" cx="776.21" cy="-117.2" rx="3.6" ry="3.6"/>
<text text-anchor="middle" x="751.98" y="-124.75" font-family="Times,serif" font-size="14.00">toList</text>
</g>
<!-- p47&#45;&gt;p48 -->
<g id="edge60" class="edge">
<title>p47&#45;&gt;p48</title>
<path fill="none" stroke="black" d="M776.21,-157.37C776.21,-152.08 776.21,-140.9 776.21,-131.83"/>
<polygon fill="black" stroke="black" points="779.71,-131.99 776.21,-121.99 772.71,-131.99 779.71,-131.99"/>
</g>
<!-- p49 -->
<g id="node50" class="node">
<title>p49</title>
<ellipse fill="none" stroke="black" cx="776.21" cy="-58.6" rx="69.1" ry="18"/>
<text text-anchor="middle" x="776.21" y="-53.92" font-family="Times,serif" font-size="14.00">fastp_parse</text>
</g>
<!-- p48&#45;&gt;p49 -->
<g id="edge61" class="edge">
<title>p48&#45;&gt;p49</title>
<path fill="none" stroke="black" d="M776.21,-113.16C776.21,-108.23 776.21,-98.04 776.21,-87.85"/>
<polygon fill="black" stroke="black" points="779.71,-88.05 776.21,-78.05 772.71,-88.05 779.71,-88.05"/>
</g>
<!-- p50 -->
<g id="node51" class="node">
<title>p50</title>
<ellipse fill="black" stroke="black" cx="776.21" cy="-1.8" rx="1.8" ry="1.8"/>
</g>
<!-- p49&#45;&gt;p50 -->
<g id="edge62" class="edge">
<title>p49&#45;&gt;p50</title>
<path fill="none" stroke="black" d="M776.21,-40.26C776.21,-31.96 776.21,-22.23 776.21,-14.77"/>
<polygon fill="black" stroke="black" points="779.71,-15 776.21,-5 772.71,-15 779.71,-15"/>
</g>
</g>
</svg>
