<?xml version="1.0" standalone="no"?>
<svg xmlns="http://www.w3.org/2000/svg" xmlns:xlink="http://www.w3.org/1999/xlink" width="693pt" height="902pt" viewBox="0.00 0.00 692.95 902.33">
<g id="graph0" class="graph" transform="translate(43.14512634281863,778.7052960058925) scale(0.8457529250812715)" data-name="metaG_EukDepletion">

<polygon fill="white" stroke="none" points="-4,4 -4,-898.33 688.95,-898.33 688.95,4 -4,4" style=""/>
<!-- Kraken2_DB -->
<g id="node1" class="node" pointer-events="visible" data-name="Kraken2_DB">

<path fill="none" stroke="black" d="M93.59,-778.92C93.59,-781.8 77.29,-784.13 57.23,-784.13 37.16,-784.13 20.86,-781.8 20.86,-778.92 20.86,-778.92 20.86,-731.95 20.86,-731.95 20.86,-729.07 37.16,-726.73 57.23,-726.73 77.29,-726.73 93.59,-729.07 93.59,-731.95 93.59,-731.95 93.59,-778.92 93.59,-778.92" style=""/>
<path fill="none" stroke="black" d="M93.59,-778.92C93.59,-776.04 77.29,-773.7 57.23,-773.7 37.16,-773.7 20.86,-776.04 20.86,-778.92" style=""/>
<text text-anchor="middle" x="57.23" y="-759.63" font-family="Times,serif" font-size="14.00" style="">Kraken2 -</text>
<text text-anchor="middle" x="57.23" y="-742.83" font-family="Times,serif" font-size="14.00" style="">NT DB</text>
</g>
<!-- Proc_06 -->
<g id="node19" class="node" pointer-events="visible" data-name="Proc_06">

<polygon fill="none" stroke="black" points="233.23,-674.53 17.23,-674.53 17.23,-649.93 233.23,-649.93 233.23,-674.53" style=""/>
<text text-anchor="middle" x="125.23" y="-658.03" font-family="Times,serif" font-size="14.00" style="">Kraken2</text>
</g>
<!-- Kraken2_DB&#45;&gt;Proc_06 -->
<g id="edge22" class="edge" data-name="Kraken2_DB-&gt;Proc_06">

<path fill="none" stroke="black" d="M78,-726.58C88.23,-712.85 100.36,-696.59 109.76,-683.98"/>
<polygon fill="black" stroke="black" points="112.55,-686.09 115.72,-675.98 106.94,-681.9 112.55,-686.09"/>
</g>
<!-- Proc_07 -->
<g id="node20" class="node" pointer-events="visible" data-name="Proc_07">

<polygon fill="none" stroke="black" points="232.23,-581.33 16.23,-581.33 16.23,-556.73 232.23,-556.73 232.23,-581.33" style=""/>
<text text-anchor="middle" x="124.23" y="-564.83" font-family="Times,serif" font-size="14.00" style="">Bracken</text>
</g>
<!-- Kraken2_DB&#45;&gt;Proc_07 -->
<g id="edge23" class="edge" data-name="Kraken2_DB-&gt;Proc_07">

<path fill="none" stroke="black" d="M30.08,-727.38C21.35,-716.87 12.77,-704.16 8.23,-690.83 0.03,-666.77 -4.73,-655.51 8.23,-633.63 21.73,-610.84 46.61,-595.68 69.87,-585.89"/>
<polygon fill="black" stroke="black" points="70.96,-589.23 78.99,-582.32 68.41,-582.71 70.96,-589.23"/>
</g>
<!-- Bracken_DB -->
<g id="node2" class="node" pointer-events="visible" data-name="Bracken_DB">

<path fill="none" stroke="black" d="M336.82,-676.96C336.82,-678.77 317.73,-680.23 294.23,-680.23 270.73,-680.23 251.64,-678.77 251.64,-676.96 251.64,-676.96 251.64,-647.51 251.64,-647.51 251.64,-645.7 270.73,-644.23 294.23,-644.23 317.73,-644.23 336.82,-645.7 336.82,-647.51 336.82,-647.51 336.82,-676.96 336.82,-676.96" style=""/>
<path fill="none" stroke="black" d="M336.82,-676.96C336.82,-675.16 317.73,-673.69 294.23,-673.69 270.73,-673.69 251.64,-675.16 251.64,-676.96" style=""/>
<text text-anchor="middle" x="294.23" y="-658.03" font-family="Times,serif" font-size="14.00" style="">Bracken DB</text>
</g>
<!-- Bracken_DB&#45;&gt;Proc_07 -->
<g id="edge24" class="edge" data-name="Bracken_DB-&gt;Proc_07">

<path fill="none" stroke="black" d="M263.05,-644.51C232.69,-628.22 186.79,-603.59 156.17,-587.17"/>
<polygon fill="black" stroke="black" points="157.83,-584.09 147.37,-582.45 154.53,-590.26 157.83,-584.09"/>
</g>
<!-- Kaiju_DB -->
<g id="node3" class="node" pointer-events="visible" data-name="Kaiju_DB">

<path fill="none" stroke="black" d="M431.88,-685.72C431.88,-688.6 415.45,-690.93 395.23,-690.93 375.01,-690.93 358.58,-688.6 358.58,-685.72 358.58,-685.72 358.58,-638.75 358.58,-638.75 358.58,-635.87 375.01,-633.53 395.23,-633.53 415.45,-633.53 431.88,-635.87 431.88,-638.75 431.88,-638.75 431.88,-685.72 431.88,-685.72" style=""/>
<path fill="none" stroke="black" d="M431.88,-685.72C431.88,-682.84 415.45,-680.5 395.23,-680.5 375.01,-680.5 358.58,-682.84 358.58,-685.72" style=""/>
<text text-anchor="middle" x="395.23" y="-666.43" font-family="Times,serif" font-size="14.00" style="">Kaiju - </text>
<text text-anchor="middle" x="395.23" y="-649.63" font-family="Times,serif" font-size="14.00" style="">refseq DB</text>
</g>
<!-- Proc_02 -->
<g id="node14" class="node" pointer-events="visible" data-name="Proc_02">

<polygon fill="none" stroke="black" points="668.23,-581.33 452.23,-581.33 452.23,-556.73 668.23,-556.73 668.23,-581.33" style=""/>
<text text-anchor="middle" x="560.23" y="-564.83" font-family="Times,serif" font-size="14.00" style="">Kaiju multi</text>
</g>
<!-- Kaiju_DB&#45;&gt;Proc_02 -->
<g id="edge16" class="edge" data-name="Kaiju_DB-&gt;Proc_02">

<path fill="none" stroke="black" d="M432.29,-638.78C435.31,-637.02 438.31,-635.29 441.23,-633.63 470.16,-617.23 503.61,-599.46 527.66,-586.88"/>
<polygon fill="black" stroke="black" points="529.08,-590.09 536.33,-582.36 525.85,-583.88 529.08,-590.09"/>
</g>
<!-- Reference_Host -->
<g id="node4" class="node" pointer-events="visible" data-name="Reference_Host">

<path fill="none" stroke="black" d="M434.41,-592.52C434.41,-595.4 411.47,-597.73 383.23,-597.73 354.99,-597.73 332.05,-595.4 332.05,-592.52 332.05,-592.52 332.05,-545.55 332.05,-545.55 332.05,-542.67 354.99,-540.33 383.23,-540.33 411.47,-540.33 434.41,-542.67 434.41,-545.55 434.41,-545.55 434.41,-592.52 434.41,-592.52" style=""/>
<path fill="none" stroke="black" d="M434.41,-592.52C434.41,-589.64 411.47,-587.3 383.23,-587.3 354.99,-587.3 332.05,-589.64 332.05,-592.52" style=""/>
<text text-anchor="middle" x="383.23" y="-573.23" font-family="Times,serif" font-size="14.00" style="">Reference Host</text>
<text text-anchor="middle" x="383.23" y="-556.43" font-family="Times,serif" font-size="14.00" style="">(Coral/Aip)</text>
</g>
<!-- Proc_03 -->
<g id="node15" class="node" pointer-events="visible" data-name="Proc_03">

<polygon fill="none" stroke="black" points="534.23,-453.35 318.23,-453.35 318.23,-412.14 534.23,-412.14 534.23,-453.35" style=""/>
<text text-anchor="middle" x="426.23" y="-436.95" font-family="Times,serif" font-size="14.00" style="">map to references</text>
<text text-anchor="middle" x="426.23" y="-420.15" font-family="Times,serif" font-size="14.00" style="">(host)</text>
</g>
<!-- Reference_Host&#45;&gt;Proc_03 -->
<g id="edge17" class="edge" data-name="Reference_Host-&gt;Proc_03">

<path fill="none" stroke="black" d="M392.24,-539.88C399.32,-517.78 409.16,-487.04 416.43,-464.33"/>
<polygon fill="black" stroke="black" points="419.7,-465.62 419.41,-455.03 413.03,-463.49 419.7,-465.62"/>
</g>
<!-- Reference_Symbiodinum -->
<g id="node5" class="node" pointer-events="visible" data-name="Reference_Symbiodinum">

<path fill="none" stroke="black" d="M300.07,-456.23C300.07,-459.11 278.63,-461.45 252.23,-461.45 225.83,-461.45 204.38,-459.11 204.38,-456.23 204.38,-456.23 204.38,-409.26 204.38,-409.26 204.38,-406.38 225.83,-404.05 252.23,-404.05 278.63,-404.05 300.07,-406.38 300.07,-409.26 300.07,-409.26 300.07,-456.23 300.07,-456.23" style=""/>
<path fill="none" stroke="black" d="M300.07,-456.23C300.07,-453.35 278.63,-451.01 252.23,-451.01 225.83,-451.01 204.38,-453.35 204.38,-456.23" style=""/>
<text text-anchor="middle" x="252.23" y="-436.95" font-family="Times,serif" font-size="14.00" style="">Reference</text>
<text text-anchor="middle" x="252.23" y="-420.15" font-family="Times,serif" font-size="14.00" style="">Symbiodinum</text>
</g>
<!-- Proc_04 -->
<g id="node16" class="node" pointer-events="visible" data-name="Proc_04">

<polygon fill="none" stroke="black" points="373.23,-302.34 157.23,-302.34 157.23,-261.13 373.23,-261.13 373.23,-302.34" style=""/>
<text text-anchor="middle" x="265.23" y="-285.94" font-family="Times,serif" font-size="14.00" style="">map to references</text>
<text text-anchor="middle" x="265.23" y="-269.14" font-family="Times,serif" font-size="14.00" style="">(Symbiodinum)</text>
</g>
<!-- Reference_Symbiodinum&#45;&gt;Proc_04 -->
<g id="edge18" class="edge" data-name="Reference_Symbiodinum-&gt;Proc_04">

<path fill="none" stroke="black" d="M254.67,-403.72C256.91,-378.13 260.2,-340.36 262.51,-313.85"/>
<polygon fill="black" stroke="black" points="265.99,-314.32 263.37,-304.05 259.01,-313.71 265.99,-314.32"/>
</g>
<!-- MMSeq2 -->
<g id="node6" class="node" pointer-events="visible" data-name="MMSeq2">

<path fill="none" stroke="black" d="M160.63,-163.49C160.63,-166.37 144.31,-168.71 124.23,-168.71 104.14,-168.71 87.83,-166.37 87.83,-163.49 87.83,-163.49 87.83,-116.53 87.83,-116.53 87.83,-113.65 104.14,-111.31 124.23,-111.31 144.31,-111.31 160.63,-113.65 160.63,-116.53 160.63,-116.53 160.63,-163.49 160.63,-163.49" style=""/>
<path fill="none" stroke="black" d="M160.63,-163.49C160.63,-160.61 144.31,-158.27 124.23,-158.27 104.14,-158.27 87.83,-160.61 87.83,-163.49" style=""/>
<text text-anchor="middle" x="124.23" y="-144.21" font-family="Times,serif" font-size="14.00" style="">MMSeq2 </text>
<text text-anchor="middle" x="124.23" y="-127.41" font-family="Times,serif" font-size="14.00" style="">(to do)</text>
</g>
<!-- Proc_09 -->
<g id="node18" class="node" pointer-events="visible" data-name="Proc_09">

<polygon fill="none" stroke="black" points="284.23,-41.4 68.23,-41.4 68.23,-0.2 284.23,-0.2 284.23,-41.4" style=""/>
<text text-anchor="middle" x="176.23" y="-25" font-family="Times,serif" font-size="14.00" style="">mmseq2</text>
<text text-anchor="middle" x="176.23" y="-8.2" font-family="Times,serif" font-size="14.00" style="">nt search</text>
</g>
<!-- MMSeq2&#45;&gt;Proc_09 -->
<g id="edge12" class="edge" data-name="MMSeq2-&gt;Proc_09">

<path fill="none" stroke="black" d="M136.68,-110.93C144.58,-93.13 154.8,-70.1 162.87,-51.92"/>
<polygon fill="black" stroke="black" points="165.98,-53.52 166.84,-42.96 159.59,-50.68 165.98,-53.52"/>
</g>
<!-- Input -->
<g id="node7" class="node" pointer-events="visible" data-name="Input">

<ellipse fill="none" stroke="black" cx="558.23" cy="-857.18" rx="37.3" ry="37.3" style=""/>
<text text-anchor="middle" x="558.23" y="-861.38" font-family="Times,serif" font-size="14.00" style="">Reads</text>
<text text-anchor="middle" x="558.23" y="-844.58" font-family="Times,serif" font-size="14.00" style="">(fastq)</text>
</g>
<!-- Proc_01 -->
<g id="node12" class="node" pointer-events="visible" data-name="Proc_01">

<polygon fill="none" stroke="black" points="666.23,-776.04 450.23,-776.04 450.23,-734.83 666.23,-734.83 666.23,-776.04" style=""/>
<text text-anchor="middle" x="558.23" y="-759.63" font-family="Times,serif" font-size="14.00" style="">Trim </text>
<text text-anchor="middle" x="558.23" y="-742.83" font-family="Times,serif" font-size="14.00" style="">(trimmomatic)</text>
</g>
<!-- Input&#45;&gt;Proc_01 -->
<g id="edge1" class="edge" data-name="Input-&gt;Proc_01">

<path fill="none" stroke="black" d="M558.23,-819.61C558.23,-809.14 558.23,-797.82 558.23,-787.7"/>
<polygon fill="black" stroke="black" points="561.73,-788 558.23,-778 554.73,-788 561.73,-788"/>
</g>
<!-- Output_01 -->
<g id="node8" class="node" pointer-events="visible" data-name="Output_01">

<ellipse fill="none" stroke="black" cx="553.23" cy="-281.74" rx="39.16" ry="39.16" style=""/>
<ellipse fill="none" stroke="black" cx="553.23" cy="-281.74" rx="43.14" ry="43.14" style=""/>
<text text-anchor="middle" x="553.23" y="-285.94" font-family="Times,serif" font-size="14.00" style="">bacterial</text>
<text text-anchor="middle" x="553.23" y="-269.14" font-family="Times,serif" font-size="14.00" style="">reads</text>
</g>
<!-- Proc_05 -->
<g id="node17" class="node" pointer-events="visible" data-name="Proc_05">

<polygon fill="none" stroke="black" points="570.23,-41.4 354.23,-41.4 354.23,-0.2 570.23,-0.2 570.23,-41.4" style=""/>
<text text-anchor="middle" x="462.23" y="-25" font-family="Times,serif" font-size="14.00" style="">fastp </text>
<text text-anchor="middle" x="462.23" y="-8.2" font-family="Times,serif" font-size="14.00" style="">Stats generation</text>
</g>
<!-- Output_01&#45;&gt;Proc_05 -->
<g id="edge13" class="edge" data-name="Output_01-&gt;Proc_05">

<path fill="none" stroke="black" d="M539.11,-240.56C520.85,-188.59 489.43,-99.2 472.98,-52.4"/>
<polygon fill="black" stroke="black" points="476.35,-51.44 469.74,-43.16 469.75,-53.76 476.35,-51.44"/>
</g>
<!-- Output_02 -->
<g id="node9" class="node" pointer-events="visible" data-name="Output_02">

<ellipse fill="none" stroke="black" cx="435.23" cy="-281.74" rx="36" ry="36" style=""/>
<ellipse fill="none" stroke="black" cx="435.23" cy="-281.74" rx="40" ry="40" style=""/>
<text text-anchor="middle" x="435.23" y="-285.94" font-family="Times,serif" font-size="14.00" style="">Coral</text>
<text text-anchor="middle" x="435.23" y="-269.14" font-family="Times,serif" font-size="14.00" style="">reads</text>
</g>
<!-- Output_02&#45;&gt;Proc_05 -->
<g id="edge14" class="edge" data-name="Output_02-&gt;Proc_05">

<path fill="none" stroke="black" d="M439.3,-241.69C444.68,-190.09 454.05,-100.23 458.98,-52.94"/>
<polygon fill="black" stroke="black" points="462.45,-53.42 460.01,-43.11 455.49,-52.7 462.45,-53.42"/>
</g>
<!-- Output_03 -->
<g id="node10" class="node" pointer-events="visible" data-name="Output_03">

<ellipse fill="none" stroke="black" cx="372.23" cy="-140.01" rx="58.32" ry="58.32" style=""/>
<ellipse fill="none" stroke="black" cx="372.23" cy="-140.01" rx="62.32" ry="62.32" style=""/>
<text text-anchor="middle" x="372.23" y="-144.21" font-family="Times,serif" font-size="14.00" style="">Symbiodinum</text>
<text text-anchor="middle" x="372.23" y="-127.41" font-family="Times,serif" font-size="14.00" style="">reads</text>
</g>
<!-- Output_03&#45;&gt;Proc_05 -->
<g id="edge15" class="edge" data-name="Output_03-&gt;Proc_05">

<path fill="none" stroke="black" d="M409.87,-89.98C420.14,-76.62 430.92,-62.57 440.02,-50.72"/>
<polygon fill="black" stroke="black" points="442.68,-53.01 445.99,-42.95 437.12,-48.75 442.68,-53.01"/>
</g>
<!-- Output_04 -->
<g id="node11" class="node" pointer-events="visible" data-name="Output_04">

<ellipse fill="none" stroke="black" cx="235.23" cy="-140.01" rx="56.91" ry="56.91" style=""/>
<text text-anchor="middle" x="235.23" y="-144.21" font-family="Times,serif" font-size="14.00" style="">Other reads</text>
<text text-anchor="middle" x="235.23" y="-127.41" font-family="Times,serif" font-size="14.00" style="">(unidentified)</text>
</g>
<!-- Output_04&#45;&gt;Proc_09 -->
<g id="edge11" class="edge" data-name="Output_04-&gt;Proc_09">

<path fill="none" stroke="black" d="M209.86,-88.62C203.57,-76.11 197.02,-63.1 191.39,-51.91"/>
<polygon fill="black" stroke="black" points="194.61,-50.53 186.99,-43.18 188.36,-53.68 194.61,-50.53"/>
</g>
<!-- Proc_01b -->
<g id="node13" class="node" pointer-events="visible" data-name="Proc_01b">

<polygon fill="none" stroke="black" points="666.23,-682.84 450.23,-682.84 450.23,-641.63 666.23,-641.63 666.23,-682.84" style=""/>
<text text-anchor="middle" x="558.23" y="-666.43" font-family="Times,serif" font-size="14.00" style="">megahit </text>
<text text-anchor="middle" x="558.23" y="-649.63" font-family="Times,serif" font-size="14.00" style="">assembly</text>
</g>
<!-- Proc_01&#45;&gt;Proc_01b -->
<g id="edge2" class="edge" data-name="Proc_01-&gt;Proc_01b">

<path fill="none" stroke="black" d="M558.23,-734.64C558.23,-723.01 558.23,-708.04 558.23,-694.81"/>
<polygon fill="black" stroke="black" points="561.73,-694.81 558.23,-684.81 554.73,-694.81 561.73,-694.81"/>
</g>
<!-- Proc_01&#45;&gt;Proc_02 -->
<g id="edge3" class="edge" data-name="Proc_01-&gt;Proc_02">

<path fill="none" stroke="black" d="M622.76,-734.36C643.18,-724.62 663.47,-710.61 675.23,-690.83 688.22,-668.98 688.14,-655.53 675.23,-633.63 661.81,-610.88 637.01,-595.7 613.87,-585.9"/>
<polygon fill="black" stroke="black" points="615.39,-582.74 604.8,-582.32 612.82,-589.25 615.39,-582.74"/>
</g>
<!-- Proc_01&#45;&gt;Proc_06 -->
<g id="edge19" class="edge" data-name="Proc_01-&gt;Proc_06">

<path fill="none" stroke="black" d="M454.15,-734.38C392.44,-722.27 312.75,-706.24 242.23,-690.83 223.49,-686.74 203.12,-682.03 184.71,-677.67"/>
<polygon fill="black" stroke="black" points="185.54,-674.27 175,-675.36 183.92,-681.08 185.54,-674.27"/>
</g>
<!-- Proc_01b&#45;&gt;Proc_02 -->
<g id="edge4" class="edge" data-name="Proc_01b-&gt;Proc_02">

<path fill="none" stroke="black" d="M558.66,-641.44C558.97,-627.2 559.4,-607.95 559.72,-593.02"/>
<polygon fill="black" stroke="black" points="563.22,-593.3 559.94,-583.22 556.22,-593.14 563.22,-593.3"/>
</g>
<!-- Proc_02&#45;&gt;Output_01 -->
<g id="edge5" class="edge" data-name="Proc_02-&gt;Output_01">

<path fill="none" stroke="black" d="M559.95,-556.5C559.05,-520.03 556.24,-405.63 554.55,-336.79"/>
<polygon fill="black" stroke="black" points="558.05,-336.75 554.31,-326.84 551.06,-336.92 558.05,-336.75"/>
</g>
<!-- Proc_02&#45;&gt;Proc_03 -->
<g id="edge6" class="edge" data-name="Proc_02-&gt;Proc_03">

<path fill="none" stroke="black" d="M548.8,-556.58C527.98,-535.71 483.29,-490.93 454.01,-461.59"/>
<polygon fill="black" stroke="black" points="456.81,-459.44 447.27,-454.83 451.85,-464.38 456.81,-459.44"/>
</g>
<!-- Proc_03&#45;&gt;Output_02 -->
<g id="edge7" class="edge" data-name="Proc_03-&gt;Output_02">

<path fill="none" stroke="black" d="M427.44,-411.65C428.65,-391.63 430.56,-360.09 432.18,-333.22"/>
<polygon fill="black" stroke="black" points="435.65,-333.74 432.76,-323.54 428.67,-333.31 435.65,-333.74"/>
</g>
<!-- Proc_03&#45;&gt;Proc_04 -->
<g id="edge8" class="edge" data-name="Proc_03-&gt;Proc_04">

<path fill="none" stroke="black" d="M404.51,-411.65C376.23,-385.47 326.65,-339.58 294.91,-310.21"/>
<polygon fill="black" stroke="black" points="297.68,-308 287.96,-303.78 292.93,-313.14 297.68,-308"/>
</g>
<!-- Proc_04&#45;&gt;Output_03 -->
<g id="edge9" class="edge" data-name="Proc_04-&gt;Output_03">

<path fill="none" stroke="black" d="M280.56,-260.72C292.9,-244.6 310.9,-221.1 327.68,-199.18"/>
<polygon fill="black" stroke="black" points="330.31,-201.5 333.61,-191.43 324.75,-197.25 330.31,-201.5"/>
</g>
<!-- Proc_04&#45;&gt;Output_04 -->
<g id="edge10" class="edge" data-name="Proc_04-&gt;Output_04">

<path fill="none" stroke="black" d="M260.93,-260.72C257.88,-246.52 253.6,-226.6 249.41,-207.07"/>
<polygon fill="black" stroke="black" points="252.87,-206.5 247.35,-197.46 246.03,-207.97 252.87,-206.5"/>
</g>
<!-- Proc_06&#45;&gt;Proc_07 -->
<g id="edge20" class="edge" data-name="Proc_06-&gt;Proc_07">

<path fill="none" stroke="black" d="M125.1,-649.68C124.95,-635.51 124.68,-611.13 124.48,-593.07"/>
<polygon fill="black" stroke="black" points="127.98,-593.25 124.37,-583.29 120.98,-593.33 127.98,-593.25"/>
</g>
<!-- Proc_08 -->
<g id="node21" class="node" pointer-events="visible" data-name="Proc_08">

<ellipse fill="none" stroke="black" cx="115.23" cy="-432.75" rx="67.87" ry="67.87" style=""/>
<ellipse fill="none" stroke="black" cx="115.23" cy="-432.75" rx="71.88" ry="71.88" style=""/>
<text text-anchor="middle" x="115.23" y="-436.95" font-family="Times,serif" font-size="14.00" style="">𝛼 &amp; β Diversity</text>
<text text-anchor="middle" x="115.23" y="-420.15" font-family="Times,serif" font-size="14.00" style="">Calculations</text>
</g>
<!-- Proc_07&#45;&gt;Proc_08 -->
<g id="edge21" class="edge" data-name="Proc_07-&gt;Proc_08">

<path fill="none" stroke="black" d="M123.46,-556.58C122.81,-546.9 121.82,-532.05 120.74,-516"/>
<polygon fill="black" stroke="black" points="124.25,-515.99 120.09,-506.25 117.26,-516.46 124.25,-515.99"/>
</g>
</g>
</svg>